<svg width="400" height="189" viewBox="0 0 400 189" fill="none" xmlns="http://www.w3.org/2000/svg">
<path d="M32.5737 159.905C29.4979 164.122 29.3639 166.903 31.7947 172.563C29.5797 176.05 29.139 177.891 30.0421 180.937L48.1526 182.3L129.553 183.469L181.742 185.026L246.005 186.584C249.865 187.825 253.887 188.079 264.311 187.753C270.113 187.293 272.892 186.772 276.384 185.026M32.5737 159.905C30.2231 155.376 30.8211 153.09 33.3526 149.584M32.5737 159.905C34.2799 158.187 35.2141 157.928 36.8579 158.737M33.3526 149.584C30.1427 144.491 30.056 141.317 33.5474 134.979C31.4053 130.111 31.6508 127.206 34.3263 122.905C33.2104 119.961 33.1729 118.058 34.3263 114.142C31.8019 110.272 31.6637 107.982 34.3263 103.626V99.1474M33.3526 149.584C34.8669 147.98 35.7204 147.87 37.2474 149.195M276.384 185.026L293.716 187.753M276.384 185.026C276.039 182.912 275.542 181.717 274.242 179.574L277.942 169.253L276.774 167.111C274.02 164.655 272.716 162.946 271.13 160.869L271.12 160.855C270.932 160.609 270.741 160.358 270.542 160.1C275.111 153.288 275.914 151.024 274.632 149.39C272.843 148.293 272.091 147.368 270.932 145.495C276.419 142.64 277.905 140.687 277.553 136.537L268.79 125.242M293.716 187.753L306.763 186.584H376.09M293.716 187.753C293.11 185.09 293.286 183.425 295.079 179.963M376.09 186.584L379.4 184.637C379.218 182.714 378.926 181.756 378.232 180.158M376.09 186.584C375.242 184.84 375.035 183.63 375.505 180.742M378.232 180.158C379.017 175.025 378.922 172.409 377.648 168.279C378.486 163.254 378.338 160.645 376.869 156.4M378.232 180.158C377.106 179.226 376.518 179.519 375.505 180.742M376.869 156.4C378.033 151.521 377.934 148.662 376.479 143.353C377.391 139.809 377.293 137.674 376.09 133.616C377.509 127.261 377.343 123.759 374.921 117.647C375.763 113.819 375.708 111.736 374.921 108.105M376.869 156.4C376.128 155.526 375.707 155.425 374.532 155.816M374.921 108.105C376.984 102.297 380.051 99.8002 386.377 97.5738C388.214 96.927 389.841 95.4172 389.196 93.5791C389.123 93.3706 389.038 93.1505 388.942 92.9158M374.921 108.105C374.295 106.328 373.952 105.894 372.39 106.937M388.942 92.9158C389.06 92.4744 389.177 92.0591 389.289 91.6632C389.815 89.804 390.219 88.3737 389.916 86.6842M388.942 92.9158C388.266 91.9019 387.553 91.7921 386.411 92.3316M103.653 103.237L100.732 181.911M38.0263 134.979C36.0188 133.939 35.0461 133.832 33.7421 134.979M38.0263 134.979C40.8193 130.594 41.0519 127.918 38.8053 122.711M38.0263 134.979C41.2486 140.738 41.0942 143.85 37.4421 149.195C39.5023 153.617 39.2896 155.635 36.8579 158.542C40.0151 164.787 39.7118 167.749 35.8842 172.174C37.8586 175.129 38.2154 177.121 37.8316 181.132M38.8053 122.711C37.1902 121.308 36.2227 121.171 34.3263 122.711M38.8053 122.711C40.9138 119.478 41.1449 117.493 39.3895 113.558M39.1947 113.558C37.1476 111.99 36.1444 112.181 34.5211 113.753M268.79 125.242C272.44 123.778 273.794 122.655 274.242 119.79C270.867 115.961 269.607 113.778 267.816 109.858M268.79 125.242C266.597 123.657 264.896 123.186 261 123.1M267.816 109.858C273.622 107.283 275.529 105.509 275.411 101.484M267.816 109.858L259.637 107.326M275.411 101.484C272.118 98.4498 270.774 95.5048 268.4 90.1895C272.291 87.8319 273.827 86.3596 275.021 83.3737C271.069 79.739 270.123 77.5675 268.984 73.6369C272.544 71.9649 274.018 70.5342 275.216 66.6264L312.216 61.5632C309.652 57.9211 308.807 55.3409 309.1 49.1M275.411 101.484L292.742 99.5369M317.863 62.7316C316.518 60.5337 315.177 60.392 312.021 61.5632C299.805 67.7535 295.082 71.7454 293.132 80.4527M317.863 62.7316C319.711 54.9169 318.997 50.9434 316.111 44.2316M317.863 62.7316C310.017 68.8892 305.788 72.9347 298.779 82.0106M298.779 82.0106C301.912 89.3382 301.648 93.5352 298.779 101.095M298.779 82.0106C296.958 78.2307 295.667 78.3455 293.132 80.4527M298.779 82.0106L303.453 84.5421C304.542 86.3766 305.324 87.9415 305.717 89.4106M298.779 101.095C301.326 107.524 301.784 111.28 299.753 118.426M298.779 101.095C296.788 98.0796 295.424 98.0149 292.742 99.5369M299.753 118.426C302.423 126.963 302.537 130.99 299.753 136.537M299.753 118.426C297.428 115.244 296.057 115.141 293.521 117.258M299.753 136.537C301.785 141.905 301.853 144.572 300.337 148.805M299.753 136.537C297.565 133.534 296.433 133.706 294.495 135.563M300.337 148.805C303.805 158.159 303.998 162.294 300.921 167.5M300.337 148.805C298.164 146.281 296.854 147.001 294.495 148.805M300.921 167.5C302.61 172.577 303.015 175.35 301.311 179.963M300.921 167.5C299.682 166.731 299 166.723 295.663 167.5M301.311 179.963C303.131 183.172 303.721 184.688 303.842 186.779M301.311 179.963C299.598 178.03 298.175 178.187 295.079 179.963M295.079 179.963H274.437L272.295 178.211L260.805 177.432M295.079 179.963C293.786 175.009 294.36 172.278 295.663 167.5M276.969 167.111L295.663 167.5M295.663 167.5C292.365 159.677 291.586 155.572 294.495 148.805M275.021 149.974L294.495 148.805M294.495 148.805C292.635 142.954 292.486 140.001 294.495 135.563M277.358 136.537L294.495 135.563M294.495 135.563C291.309 128.4 291.47 124.394 293.521 117.258M274.242 119.595L293.521 117.258M293.521 117.258C290.625 109.35 290.727 105.574 292.742 99.5369M292.742 99.5369C289.691 92.3953 289.835 88.2111 293.132 80.4527M274.826 83.179L293.132 80.4527M253.6 67.7948L249.316 68.379C242.424 77.3015 242.052 81.6563 247.758 88.2421M247.758 88.2421C241.27 97.0742 241.758 101.342 248.926 107.911M247.758 88.2421C251.636 84.7076 254.126 84.5087 259.053 86.879M248.926 107.911C244.958 113.26 244.869 116.621 247.563 123.1M248.926 107.911C252.856 105.656 255.224 105.714 259.637 107.326M247.563 123.1C241.407 130.519 241.176 134.978 249.511 143.742M247.563 123.1C253.4 120.137 256.313 120.281 261 123.1M249.511 143.742C245.955 149.598 245.903 152.632 249.511 157.569M249.511 143.742C253.022 141.679 255.298 141.59 260.026 143.742M249.511 157.569C244.25 166.828 244.434 171.032 250.095 176.847M249.511 157.569C254.293 155.554 256.602 155.575 260.026 157.763M250.095 176.847C247.334 180.607 246.781 182.835 247.174 186.974M250.095 176.847C254.962 175.151 257.343 175.349 261 177.626M261 177.626C264.135 180.734 265.127 182.712 264.505 186.974M261 177.626C266.754 170.522 267.046 166.227 260.026 157.763M260.026 157.763C264.131 152.492 264.054 149.418 260.026 143.742M260.026 157.763L270.153 159.126L270.932 160.295M260.026 143.742L270.737 145.69M260.026 143.742C267.424 135.673 266.247 131.155 261 123.1M261 123.1C264.006 116.402 263.543 112.973 259.637 107.326M259.637 107.326C265.741 99.193 266.141 94.7037 259.053 86.879M259.053 86.879C265.034 79.6863 265.463 75.8019 260.611 69.1579L258.274 67.2106M37.8316 181.326H49.5158C49.9012 179.543 50.4041 178.42 51.6579 176.263C50.8254 175.477 50.469 174.974 50.1 173.926C51.8484 171.122 52.5024 169.434 53.4105 166.332C50.8968 164.837 49.8726 163.772 48.7368 161.463C48.408 160.928 48.445 160.528 48.7368 159.711C50.5358 158.007 51.3866 156.851 52.6316 154.453M52.6316 154.453C50.7875 153.491 50.0563 152.789 49.1263 151.337C51.4062 148.683 52.419 146.925 53.8 143.353C50.3079 141.158 49.2237 139.629 48.9316 136.342C51.4095 135.178 52.5342 134.175 53.9947 131.668C51.363 129.55 50.3374 128.102 49.3211 125.047C52.4369 122.753 53.4546 121.428 54.1895 119.011C52.6511 118.508 51.4632 116.479 51.4632 116.479M52.6316 154.453L54.1895 153.674L72.1053 153.09M51.4632 116.479C51.4632 116.479 54.6914 112.829 55.9421 109.468C50.8765 106.715 50.0368 105.036 51.0737 101.874M51.4632 116.479L39.3895 113.558M51.0737 101.874C53.1119 100.787 53.6362 98.2943 53.8 96.8106M51.0737 101.874C50.4505 101.874 40.9474 100.056 36.2737 99.1474M39.3895 113.558C43.9978 107.633 42.7556 102.501 39.7051 101.55M34.5211 103.432C36.2374 101.727 37.9791 101.172 39.3895 101.468M39.3895 101.468C39.4967 101.49 39.6019 101.517 39.7051 101.55M39.3895 101.468L39.7051 101.55M39.7051 101.55L50.6842 104.405M35.8842 172.369C34.4983 171.318 33.6563 171.235 31.9895 172.369M259.442 86.6843L268.4 89.9948M269.374 73.8316L258.469 67.0158M75.0264 102.068L132.668 94.0843L135.395 98.9527M129.942 183.469C130.884 180.314 131.732 178.712 134.032 176.263C131.516 171.943 131.68 169.416 134.032 164.774C131.962 158.881 131.976 155.946 134.616 151.532C132.496 147.037 132.105 144.44 135.005 139.458C132.496 134.431 132.485 131.736 135.395 127.19C132.635 121.905 131.642 118.863 135.784 112.584C132.242 107.114 132.175 104.13 135.395 98.9527M135.395 98.9527L177.91 94.6817M328.769 33.5211C333.87 39.3557 335.128 42.3924 334.221 47.3474C341.825 53.2566 344.076 56.7709 343.374 63.5106C348.746 67.2571 350.18 70.3104 349.8 77.5316C354.105 82.0754 355.71 84.8771 354.474 91.1632C358.487 95.2813 358.88 97.9206 355.058 103.432C356.108 105.685 356.618 107.432 356.598 109.079M356.616 176.458L361.29 180.158M356.616 176.458C359.289 173.06 360.203 170.738 359.3 168.474M356.616 176.458C339.663 174.941 328.335 175.815 313.017 176.996L313.014 176.996C309.549 177.264 305.88 177.547 301.895 177.821M361.29 180.158C361.358 182.9 360.873 184.303 359.148 186.584M361.29 180.158L375.505 180.742M375.505 180.742C374.041 175.81 373.943 172.949 374.921 167.695M359.3 168.474C358.753 167.101 357.538 165.748 355.642 164.19C357.716 161.056 358.48 158.778 358.023 156.4M359.3 168.474C364.653 167.464 368.051 167.273 374.921 167.695M374.921 167.695C376.522 167.652 376.986 167.874 377.453 168.474M374.921 167.695C373.487 163.055 373.532 160.454 374.532 155.816M358.023 156.4C357.714 154.792 356.846 153.138 355.448 151.142C357.089 147.878 357.617 145.62 357.177 143.547M358.023 156.4C364.058 155.757 367.662 155.619 374.532 155.816M374.532 155.816C372.728 150.992 372.63 148.116 373.635 142.766M354.474 138.679C355.912 140.446 356.835 141.941 357.177 143.547M354.474 138.679C355.792 136.914 356.504 135.401 356.656 133.811M354.474 138.679L322.732 132.837M357.177 143.547C363.48 142.801 367.101 142.626 373.635 142.766M373.635 142.766L373.753 142.769M373.635 142.766C374.909 142.114 375.524 142.241 376.479 143.158M373.635 142.766C372.455 139.188 372.377 137.185 372.779 133.616M356.656 133.811C356.855 131.726 356.092 129.507 354.474 126.411C356.192 123.242 356.944 121.05 356.608 119.011M356.656 133.811L372.779 133.616M372.779 133.616C374.056 132.462 374.759 132.049 375.895 133.616M372.779 133.616C371.332 126.793 371.404 123.16 372.39 116.868M356.608 119.011C356.386 117.66 355.686 116.377 354.474 114.921C355.863 112.703 356.575 110.956 356.598 109.079M356.608 119.011L361.679 117.453L372.39 116.868M372.39 116.868C373.893 116.467 374.336 116.667 374.727 117.453M372.39 116.868C371.387 113.097 371.451 110.916 372.39 106.937M356.598 109.079L361.095 107.716L372.39 106.937M372.39 106.937C373.21 100.03 375.713 97.4903 383.684 95.2527C384.22 93.9021 384.644 93.1938 386.411 92.3316M386.411 92.3316C384.974 88.6453 385.069 86.4106 386.411 82.2053M386.411 82.2053H387.579M386.411 82.2053C385.788 82.2053 365.119 84.2825 354.863 85.3211M306.179 91.3579L313.774 93.6948L314.163 137.121L308.905 136.342M322.732 91.9421L303.648 84.5421M322.732 91.9421L354.863 103.237M322.732 91.9421C324.724 97.5126 324.623 100.252 322.732 104.6M308.321 71.1053L354.474 91.3579M349.995 77.5316L317.863 62.5369M343.374 63.9L318.448 51.2421M334.221 47.5421L321.369 39.7526M36.2737 172.174L50.2948 173.926M48.7369 160.1L36.8579 158.932M49.3211 151.337L37.6369 149.39M48.7369 136.342L38.2211 134.979M49.5158 125.047L39 122.711M51.6579 176.069H70.7421M53.0211 165.942H71.5211M72.1053 153.09L72.6895 141.99M72.1053 153.09L71.7158 166.137L70.9369 176.069M72.1053 153.09C68.3825 158.158 68.2489 160.974 71.7159 165.942C69.048 169.697 68.8348 171.91 70.9369 176.069M72.1053 153.09C69.1027 149.166 69.1697 146.744 72.6895 141.99M53.6053 143.353L54.1895 142.963L72.6895 141.99M72.6895 141.99L73.079 130.305M72.6895 141.99C69.3442 137.65 69.1121 135.114 73.2737 130.305M54.1895 131.474L73.2737 130.305M73.2737 130.305L73.8579 117.453M73.2737 130.305C69.8809 124.948 70.0656 122.143 73.6632 117.453C71.696 114.116 71.4092 112.016 74.2474 107.326M54.1895 118.816L56.1369 118.037L73.8579 117.453M73.8579 117.453L74.2474 107.326M56.1369 109.468L56.9158 108.69L74.2474 107.326M74.2474 107.326L74.8316 102.068H72.1053L51.0737 103.042M74.2474 107.326C72.2974 105.872 71.5965 104.791 71.5211 102.068M70.9369 176.069V182.69M70.9369 176.069C68.5113 178.355 67.634 179.797 67.0421 182.69M177.91 94.6817L178.042 94.6685M177.91 94.6817L178.042 85.7106L179.016 82.7895L225.558 76.7527C224.979 81.2671 225.499 83.5895 226.726 87.6579M177.91 94.6817L177.69 109.687M135.395 112.584L177.69 109.687M177.69 109.687L178.042 109.663M177.69 109.687L177.263 138.679M135.395 126.995L177.263 125.826M135.395 139.458L177.263 138.679M177.263 138.679L176.484 139.847L226.726 138.679V136.147M134.421 151.532L246.979 149M243.863 136.147H226.726M226.726 136.147C225.37 130.562 225.011 127.403 227.7 121.542M246.979 120.374C245.265 120.218 233.412 121.088 227.7 121.542M227.7 121.542C225.42 114.85 225.068 111.098 227.7 104.405M244.642 102.847L227.7 104.405M227.7 104.405C225.558 98.5209 224.758 95.0723 226.726 87.6579M245.421 85.3211L226.726 87.6579M134.226 164.968H246.2M134.226 176.653H249.705M386.411 91.9421L357.2 95.2527M355.253 163.995L303.258 160.879M301.311 146.274L355.253 151.142M322.732 132.837C325.663 127.213 325.214 124.437 322.732 119.79M322.732 132.837C325.149 135.448 326.154 137.056 326.237 140.626M322.732 119.79L354.474 126.605M322.732 119.79C325.573 113.79 325.645 110.462 322.732 104.6M354.474 114.726L322.732 104.6M326.237 140.626V141.6L309.1 139.458V137.9M326.237 140.626L317.669 139.263M309.1 137.9L317.669 139.263M309.1 137.9C308.918 136.855 308.713 135.956 308.47 135.174M303.063 115.311C306.635 120.739 307.011 123.875 303.258 129.721M303.063 115.311C308.428 109.165 307.542 104.6 302.674 98.5632M303.063 115.311H300.532M303.258 129.721H301.895M303.258 129.721C306.096 130.942 307.555 132.235 308.47 135.174M302.674 98.5632C301.774 97.8547 301.187 97.6973 299.948 97.979M302.674 98.5632C305.722 94.9502 306.511 92.3755 305.717 89.4106M317.669 139.263L316.305 92.7211L305.717 89.4106M305.984 92.7211L311.826 95.0579L312.411 135.563L308.47 135.174M8.62104 97.979L292.742 50.2684L353.5 8.78947L397.9 102.847M218.937 25.5369L217.769 25.1474V22.6158L219.326 22.4211M218.937 25.5369C218.908 26.1381 218.875 27.0274 218.859 27.8737M218.937 25.5369L235.1 21.4474V24.3684M219.326 22.4211V20.279L227.213 18.2342M219.326 22.4211L235.1 18.7211L247.174 24.3684L250.679 23.3947L237.047 16.9684M227.213 18.2342L235.1 16.1895L237.047 16.9684M227.213 18.2342V13.6579C230.69 11.6967 232.766 11.5447 236.658 12.6842L237.047 16.9684M218.937 30.2105C218.85 29.9493 218.84 28.946 218.859 27.8737M218.859 27.8737L235.1 24.3684M235.1 24.3684V26.7053M223.221 27.0947V24.3684M231.205 22.4211V24.9526M225.558 23.7842V21.0579M227.7 23.2L227.505 20.6684M231.205 19.5V17.3579M222.832 21.6421V19.5M239.969 21.0579V18.3316M245.811 21.0579V23.7842M242.89 24.5112L235.295 21.6421V16.1895M242.89 24.5112L244.058 24.9526M242.89 24.5112V22.4211M27.121 86.879L296.053 38.846M296.053 38.846L285.732 45.9842M296.053 38.846L302.479 34.4015M36.0789 83.5685L302.479 34.4015M302.479 34.4015L311.242 28.3407M44.6474 79.2843L311.242 28.3407M311.242 28.3407L350.774 1M353.5 82.7895L386.216 79.6737M385.242 77.3369L351.942 80.2579M383.879 74.0264L350.19 77.9211M382.321 71.4948L350.19 75.1948M380.763 68.5737L349.605 72.079M379.984 66.0421L349.021 69.3527M378.621 62.9263L347.074 66.6264M377.063 60.0053L343.763 64.0948M375.116 57.0842L343.763 61.1737M374.142 54.5527L343.179 58.4474M372.779 51.8263L342.4 55.9158M371.221 48.7105L340.842 53.579M369.663 45.5948L337.921 50.2684M367.911 42.479L334.611 47.3474M366.742 39.1684L334.611 44.0369M365.574 36.2474L333.832 41.1158M363.821 32.9369L332.663 38.1948M361.874 29.4316L330.716 35.4684M360.511 26.5105L330.132 32.3526M358.758 23.2L334.611 28.6526M357.59 21.2526C357.278 21.0969 344.737 24.0439 338.505 25.5368M356.811 19.3053L342.4 22.4211M11.3474 94.279L286.316 45.9842M14.8526 92.1369L290.016 42.8684M56.1369 75.5842L104.042 65.8474M105.211 64.679L65.8737 71.8842M108.911 63.1211L74.2474 68.379M112.611 61.1737L79.8948 65.8474M116.7 59.4211L83.5948 64.2895M122.347 56.6948L87.4895 62.5369M198.49 47.3474L126.826 61.5632M205.111 43.2579L133.058 57.8632M208.032 41.8948C207.72 41.8948 160.516 50.8527 136.953 55.3316M142.016 52.4105L212.705 39.1684M216.016 37.0263L92.5527 60.2M229.842 40.9211L316.111 24.7579M323.316 20.2789L234.711 37.4158M328.184 16.3842C327.717 16.54 271.905 27.3544 244.058 32.7421M246.784 30.0158L333.832 12.4895M339.284 8.78947L98.0053 58.4474M9.01053 102.847L292.937 62.3421L353.111 13.6579V17.9421L355.837 19.5V16.9684L397.706 102.847L399.263 99.1474L353.111 1.38947L96.6422 56.6948L9.01053 93.1106V97.3948L2 99.1474L5.11579 101.484L9.01053 100.705V102.847ZM79.1158 105.963L75.0264 181.326L129.747 182.884L132.279 100.121L79.1158 105.963ZM82.0369 110.442L100.147 108.3L97.6158 177.042H78.9211L82.0369 110.442ZM107.547 107.521L127.995 104.99L125.853 177.626H105.211L107.547 107.521ZM206.863 88.8264L206.279 132.642L222.053 131.863V86.879L206.863 88.8264ZM184.858 91.3579L199.269 89.6053V132.642L184.079 133.616L184.858 91.3579ZM180.574 137.705L181.937 87.8527L201.8 85.7106V136.537L180.574 137.705ZM203.548 85.3309L202.969 136.732L225.558 135.953V82.5948L203.548 85.3309ZM224.779 40.9211L239.774 32.7421L220.3 36.4421L205.111 44.4263L224.779 40.9211ZM225.558 43.0632L198.295 47.1526L216.795 37.0263L216.211 35.2737L218.937 33.9105L244.642 29.0421L246.784 30.2105L243.863 32.9369L241.526 33.3263L225.558 43.0632ZM108.132 64.2895L124.684 61.5632L140.847 52.8L125.853 56.5L108.132 64.2895ZM125.658 61.9527L142.6 52.2158L125.074 55.7211L104.821 65.0684L125.658 61.9527Z" stroke="white"/>
</svg>
