<svg width="384" height="497" viewBox="0 0 384 497" fill="none" xmlns="http://www.w3.org/2000/svg">
<mask id="path-1-inside-1_5_6" fill="white">
<path fill-rule="evenodd" clip-rule="evenodd" d="M171 2.105C126.611 7.112 83.449 28.514 53.114 60.561C16.849 98.872 -1.65598 148.102 0.324019 201C1.68902 237.489 11.527 269.363 30.651 299.263C33.03 302.983 66.65 347.758 105.361 398.763C181.8 499.477 178.45 495.572 189.381 496.7C195.495 497.331 202.898 495.255 207.168 491.713C211.793 487.878 350.443 304.35 356.88 293.544C385.191 246.017 391.749 186.192 374.449 133.249C358.29 83.793 322.343 42.943 274.787 19.992C242.947 4.626 205.646 -1.802 171 2.105ZM210.789 18.067C240.322 21.311 269.425 32.402 294 49.776C306.188 58.393 326.607 78.812 335.224 91C343.323 102.456 353.65 122.201 357.974 134.5C376.122 186.114 369.134 246.092 339.796 290.521C336.883 294.932 303.54 339.366 265.701 389.264C215.394 455.6 196.243 480.152 194.451 480.602C193.103 480.94 190.931 480.948 189.624 480.62C187.932 480.196 167.558 454.094 118.874 389.982C81.268 340.459 47.9 296.033 44.722 291.257C14.895 246.43 7.74602 186.49 26.026 134.5C30.35 122.201 40.677 102.456 48.776 91C57.393 78.812 77.812 58.393 90 49.776C125.316 24.808 168.636 13.436 210.789 18.067ZM174.5 50.06C113.02 58.404 65.476 101.828 51.39 162.5C48.873 173.344 48.605 176.282 48.613 193C48.619 208.209 49.002 213.223 50.763 221.183C57.339 250.907 69.749 273.845 90.452 294.548C111.411 315.507 136.376 328.816 165.73 334.68C177.915 337.114 206.085 337.114 218.27 334.68C270.009 324.345 312.029 287.743 328.474 238.683C333.978 222.265 335.379 213.007 335.387 193C335.395 176.282 335.127 173.344 332.61 162.5C319.375 105.492 277.095 63.947 220.116 51.964C208.91 49.607 185.146 48.615 174.5 50.06ZM219 67.894C243.942 73.58 263.957 84.676 282.095 102.871C301.014 121.85 311.937 141.91 317.645 168.156C320.155 179.7 320.197 206.178 317.723 217.692C312.026 244.205 299.965 266.028 280.74 284.605C268.905 296.041 260.149 302.148 245.761 308.998C212.145 325.003 171.855 325.003 138.239 308.998C123.851 302.148 115.095 296.041 103.26 284.605C84.035 266.028 71.974 244.205 66.277 217.692C63.803 206.178 63.845 179.7 66.355 168.156C68.859 156.644 71.435 149.047 76.441 138.414C82.808 124.888 90.089 114.725 101.905 102.871C122.933 81.776 148.177 69.42 178 65.623C185.887 64.619 210.652 65.991 219 67.894ZM134.162 136.443C103.175 158.627 77.359 177.241 76.792 177.808C75.474 179.126 83.806 191.289 85.563 190.614C86.232 190.357 92.454 186.067 99.39 181.079L112 172.011V222.506V273H192H272V222.541V172.082L285.25 181.521C292.538 186.713 298.795 190.969 299.156 190.98C299.88 191.002 306.841 181.578 307.641 179.494C308.181 178.085 194.167 95.956 191.808 96.055C191.088 96.085 165.148 114.26 134.162 136.443ZM224.131 137.734L256 160.467V208.734V257H240H224V225V193H192H160V225V257H144H128V208.735V160.471L159.75 137.768C177.213 125.281 191.671 115.05 191.881 115.032C192.091 115.015 206.603 125.23 224.131 137.734ZM208 233V257H192H176V233V209H192H208V233ZM152 393V401H160H168V393V385H160H152V393ZM184 393V401H192H200V393V385H192H184V393ZM216 393V401H224H232V393V385H224H216V393Z"/>
</mask>
<path fill-rule="evenodd" clip-rule="evenodd" d="M171 2.105C126.611 7.112 83.449 28.514 53.114 60.561C16.849 98.872 -1.65598 148.102 0.324019 201C1.68902 237.489 11.527 269.363 30.651 299.263C33.03 302.983 66.65 347.758 105.361 398.763C181.8 499.477 178.45 495.572 189.381 496.7C195.495 497.331 202.898 495.255 207.168 491.713C211.793 487.878 350.443 304.35 356.88 293.544C385.191 246.017 391.749 186.192 374.449 133.249C358.29 83.793 322.343 42.943 274.787 19.992C242.947 4.626 205.646 -1.802 171 2.105ZM210.789 18.067C240.322 21.311 269.425 32.402 294 49.776C306.188 58.393 326.607 78.812 335.224 91C343.323 102.456 353.65 122.201 357.974 134.5C376.122 186.114 369.134 246.092 339.796 290.521C336.883 294.932 303.54 339.366 265.701 389.264C215.394 455.6 196.243 480.152 194.451 480.602C193.103 480.94 190.931 480.948 189.624 480.62C187.932 480.196 167.558 454.094 118.874 389.982C81.268 340.459 47.9 296.033 44.722 291.257C14.895 246.43 7.74602 186.49 26.026 134.5C30.35 122.201 40.677 102.456 48.776 91C57.393 78.812 77.812 58.393 90 49.776C125.316 24.808 168.636 13.436 210.789 18.067ZM174.5 50.06C113.02 58.404 65.476 101.828 51.39 162.5C48.873 173.344 48.605 176.282 48.613 193C48.619 208.209 49.002 213.223 50.763 221.183C57.339 250.907 69.749 273.845 90.452 294.548C111.411 315.507 136.376 328.816 165.73 334.68C177.915 337.114 206.085 337.114 218.27 334.68C270.009 324.345 312.029 287.743 328.474 238.683C333.978 222.265 335.379 213.007 335.387 193C335.395 176.282 335.127 173.344 332.61 162.5C319.375 105.492 277.095 63.947 220.116 51.964C208.91 49.607 185.146 48.615 174.5 50.06ZM219 67.894C243.942 73.58 263.957 84.676 282.095 102.871C301.014 121.85 311.937 141.91 317.645 168.156C320.155 179.7 320.197 206.178 317.723 217.692C312.026 244.205 299.965 266.028 280.74 284.605C268.905 296.041 260.149 302.148 245.761 308.998C212.145 325.003 171.855 325.003 138.239 308.998C123.851 302.148 115.095 296.041 103.26 284.605C84.035 266.028 71.974 244.205 66.277 217.692C63.803 206.178 63.845 179.7 66.355 168.156C68.859 156.644 71.435 149.047 76.441 138.414C82.808 124.888 90.089 114.725 101.905 102.871C122.933 81.776 148.177 69.42 178 65.623C185.887 64.619 210.652 65.991 219 67.894ZM134.162 136.443C103.175 158.627 77.359 177.241 76.792 177.808C75.474 179.126 83.806 191.289 85.563 190.614C86.232 190.357 92.454 186.067 99.39 181.079L112 172.011V222.506V273H192H272V222.541V172.082L285.25 181.521C292.538 186.713 298.795 190.969 299.156 190.98C299.88 191.002 306.841 181.578 307.641 179.494C308.181 178.085 194.167 95.956 191.808 96.055C191.088 96.085 165.148 114.26 134.162 136.443ZM224.131 137.734L256 160.467V208.734V257H240H224V225V193H192H160V225V257H144H128V208.735V160.471L159.75 137.768C177.213 125.281 191.671 115.05 191.881 115.032C192.091 115.015 206.603 125.23 224.131 137.734ZM208 233V257H192H176V233V209H192H208V233ZM152 393V401H160H168V393V385H160H152V393ZM184 393V401H192H200V393V385H192H184V393ZM216 393V401H224H232V393V385H224H216V393Z" fill="white" stroke="#233697" stroke-width="6" mask="url(#path-1-inside-1_5_6)"/>
<path opacity="0.83" d="M186.863 476.687C180.022 469.412 154.779 436.635 91.5843 352.969C39.1375 283.533 39.306 283.779 31.1032 264.616C21.6366 242.501 18.0243 225.467 17.2481 199.281C16.6098 177.748 17.9304 164.97 22.5953 147.539C29.2626 122.625 43.5878 96.2463 60.2523 78.1954C79.5454 57.2974 94.8913 45.4579 115.778 35.3571C156.601 15.615 201.905 12.2564 244.335 25.8267C274.382 35.4365 295.22 48.649 318.78 73.0304C332.486 87.2137 339.996 97.8023 349.097 115.778C374.174 165.306 373.412 226.268 347.083 276.944C341.277 288.118 315.822 322.719 245.553 414.956C202.16 471.913 195.139 480.53 192.116 480.53C191.214 480.53 188.85 478.801 186.863 476.687ZM168.544 392.886V384.136L160.091 384.433L151.638 384.731L151.341 393.184L151.043 401.637H159.794H168.544V392.886ZM200.306 392.928V384.219H192.109H183.913V392.928V401.637H192.109H200.306V392.928ZM232.068 392.928V384.219H223.871H215.675V392.928V401.637H223.871H232.068V392.928ZM220.711 334.587C278.437 322.124 324.12 275.449 333.967 218.87C336.098 206.631 336.095 178.295 333.962 167.053C324.137 115.259 286.578 72.3878 236.679 56.009C222.289 51.2856 214.96 50.144 195.183 49.5446C178.337 49.0341 175.032 49.2166 165.47 51.1857C129.014 58.6936 98.2665 77.8473 76.8394 106.397C65.1654 121.952 55.0877 144.098 50.6574 163.933C47.8644 176.438 47.8651 209.795 50.6585 222.426C58.4215 257.526 78.2984 288.259 106.781 309.201C125.873 323.239 150.428 333.393 171.618 336.014C182.744 337.39 211.614 336.551 220.711 334.587L220.711 334.587Z" fill="#233697" stroke="#14532D" stroke-opacity="0.0156072" stroke-width="5.03417" stroke-linecap="square" stroke-linejoin="round"/>
<path opacity="0.83" d="M176.332 319.6C153.752 316.473 131.265 307.128 114.753 294.012C107.18 287.996 93.3858 273.787 88.4379 266.904C79.4233 254.365 73.0624 240.92 68.4211 224.596C65.7349 215.149 65.5941 213.572 65.6133 193.134C65.6359 169.146 66.6814 163.153 73.9253 145.491C81.1804 127.802 89.3095 116.149 104.701 101.377C124.679 82.2036 145.23 71.7923 172.499 67.0307C182.021 65.368 184.816 65.3019 199.65 66.3887C234.661 68.9538 257.387 79.3264 281.804 103.886C300.544 122.735 310.543 140.581 316.595 165.982C318.826 175.346 319.708 199.285 318.229 210.327C311.146 263.202 269.526 307.169 216.187 318.124C206.187 320.177 185.919 320.928 176.332 319.6V319.6ZM272.273 223.347L272.539 173.129L285.85 182.449L299.161 191.768L302.461 187.84C304.276 185.68 306.334 182.845 307.033 181.541C308.186 179.391 307.982 178.911 304.862 176.418C293.325 167.201 222.989 116.387 202.042 102.136L191.995 95.3007L184.112 100.608C176.587 105.674 99.3277 160.695 83.7597 172.075C79.6742 175.061 76.3315 178.088 76.3315 178.8C76.3315 181.042 82.9069 190.024 84.8137 190.387C85.8588 190.586 91.8685 186.995 98.9018 181.968L111.167 173.202V223.383V273.564H191.587H272.008L272.273 223.347Z" fill="#233697" stroke="#14532D" stroke-opacity="0.0156072" stroke-width="5.03417" stroke-linecap="square" stroke-linejoin="round"/>
<path opacity="0.83" d="M176.741 232.58V209.015H192.109H207.478V232.58V256.146H192.109H176.741V232.58Z" fill="#233697" stroke="#14532D" stroke-opacity="0.0156072" stroke-width="5.03417" stroke-linecap="square" stroke-linejoin="round"/>
<path opacity="0.83" d="M128.63 208.247L128.675 160.347L159.439 138.515C176.359 126.508 190.747 116.494 191.412 116.261C192.077 116.029 206.684 125.862 223.871 138.113L255.121 160.387L255.388 208.266L255.654 256.146H240.275H224.896V224.384V192.622H192.109H159.323V224.384V256.146H143.954H128.585L128.63 208.247Z" fill="#233697" stroke="#14532D" stroke-opacity="0.0156072" stroke-width="5.03417" stroke-linecap="square" stroke-linejoin="round"/>
</svg>
