<?xml version="1.0" encoding="UTF-8" standalone="no"?>
<svg
   width="384"
   height="497"
   viewBox="0 0 384 497"
   fill="none"
   version="1.1"
   id="svg4"
   sodipodi:docname="marker-green.svg"
   inkscape:version="1.1.1 (3bf5ae0d25, 2021-09-20)"
   xmlns:inkscape="http://www.inkscape.org/namespaces/inkscape"
   xmlns:sodipodi="http://sodipodi.sourceforge.net/DTD/sodipodi-0.dtd"
   xmlns="http://www.w3.org/2000/svg"
   xmlns:svg="http://www.w3.org/2000/svg">
  <defs
     id="defs8" />
  <sodipodi:namedview
     id="namedview6"
     pagecolor="#505050"
     bordercolor="#eeeeee"
     borderopacity="1"
     inkscape:pageshadow="0"
     inkscape:pageopacity="0"
     inkscape:pagecheckerboard="0"
     showgrid="false"
     inkscape:zoom="0.97600654"
     inkscape:cx="186.98645"
     inkscape:cy="264.85478"
     inkscape:window-width="1280"
     inkscape:window-height="900"
     inkscape:window-x="0"
     inkscape:window-y="27"
     inkscape:window-maximized="1"
     inkscape:current-layer="svg4" />
  <path
     fill-rule="evenodd"
     clip-rule="evenodd"
     d="M171 2.105C126.611 7.112 83.449 28.514 53.114 60.561C16.849 98.872 -1.65601 148.102 0.323989 201C1.68899 237.489 11.527 269.363 30.651 299.263C33.03 302.983 66.65 347.758 105.361 398.763C181.8 499.477 178.45 495.572 189.381 496.7C195.495 497.331 202.898 495.255 207.168 491.713C211.793 487.878 350.443 304.35 356.88 293.544C385.191 246.017 391.749 186.192 374.449 133.249C358.29 83.793 322.343 42.943 274.787 19.992C242.947 4.626 205.646 -1.802 171 2.105ZM210.789 18.067C240.322 21.311 269.425 32.402 294 49.776C306.188 58.393 326.607 78.812 335.224 91C343.323 102.456 353.65 122.201 357.974 134.5C376.122 186.114 369.134 246.092 339.796 290.521C336.883 294.932 303.54 339.366 265.701 389.264C215.394 455.6 196.243 480.152 194.451 480.602C193.103 480.94 190.931 480.948 189.624 480.62C187.932 480.196 167.558 454.094 118.874 389.982C81.268 340.459 47.9 296.033 44.722 291.257C14.895 246.43 7.74599 186.49 26.026 134.5C30.35 122.201 40.677 102.456 48.776 91C57.393 78.812 77.812 58.393 90 49.776C125.316 24.808 168.636 13.436 210.789 18.067ZM174.5 50.06C113.02 58.404 65.476 101.828 51.39 162.5C48.873 173.344 48.605 176.282 48.613 193C48.619 208.209 49.002 213.223 50.763 221.183C57.339 250.907 69.749 273.845 90.452 294.548C111.411 315.507 136.376 328.816 165.73 334.68C177.915 337.114 206.085 337.114 218.27 334.68C270.009 324.345 312.029 287.743 328.474 238.683C333.978 222.265 335.379 213.007 335.387 193C335.395 176.282 335.127 173.344 332.61 162.5C319.375 105.492 277.095 63.947 220.116 51.964C208.91 49.607 185.146 48.615 174.5 50.06ZM219 67.894C243.942 73.58 263.957 84.676 282.095 102.871C301.014 121.85 311.937 141.91 317.645 168.156C320.155 179.7 320.197 206.178 317.723 217.692C312.026 244.205 299.965 266.028 280.74 284.605C268.905 296.041 260.149 302.148 245.761 308.998C212.145 325.003 171.855 325.003 138.239 308.998C123.851 302.148 115.095 296.041 103.26 284.605C84.035 266.028 71.974 244.205 66.277 217.692C63.803 206.178 63.845 179.7 66.355 168.156C68.859 156.644 71.435 149.047 76.441 138.414C82.808 124.888 90.089 114.725 101.905 102.871C122.933 81.776 148.177 69.42 178 65.623C185.887 64.619 210.652 65.991 219 67.894ZM134.162 136.443C103.175 158.627 77.359 177.241 76.792 177.808C75.474 179.126 83.806 191.289 85.563 190.614C86.232 190.357 92.454 186.067 99.39 181.079L112 172.011V222.506V273H192H272V222.541V172.082L285.25 181.521C292.538 186.713 298.795 190.969 299.156 190.98C299.88 191.002 306.841 181.578 307.641 179.494C308.181 178.085 194.167 95.956 191.808 96.055C191.088 96.085 165.148 114.26 134.162 136.443ZM224.131 137.734L256 160.467V208.734V257H240H224V225V193H192H160V225V257H144H128V208.735V160.471L159.75 137.768C177.213 125.281 191.671 115.05 191.881 115.032C192.091 115.015 206.603 125.23 224.131 137.734ZM208 233V257H192H176V233V209H192H208V233ZM152 393V401H160H168V393V385H160H152V393ZM184 393V401H192H200V393V385H192H184V393ZM216 393V401H224H232V393V385H224H216V393Z"
     fill="#14532D"
     id="path2" />
  <path
     style="opacity:0.83;fill:#ffffff;stroke:#14532d;stroke-width:5.03417;stroke-linecap:square;stroke-linejoin:round;stroke-dashoffset:46;stroke-opacity:0.0156072;paint-order:markers stroke fill"
     d="M 186.86298,476.68738 C 180.02164,469.41227 154.77901,436.63497 91.584284,352.96895 39.137509,283.53258 39.306004,283.77871 31.103211,264.61596 21.636532,242.50061 18.024274,225.46682 17.248089,199.28145 16.60981,177.7485 17.930355,164.97006 22.595256,147.53885 29.262534,122.6254 43.587739,96.246301 60.252304,78.195424 79.545394,57.297356 94.891295,45.457896 115.77791,35.357066 c 40.82287,-19.74206 86.12711,-23.100623 128.55729,-9.530405 30.04709,9.609801 50.88456,22.822295 74.44514,47.203708 13.7058,14.183299 21.2153,24.771925 30.31664,42.747411 25.07722,49.52839 24.31537,110.49047 -2.0141,161.16617 -5.8055,11.1737 -31.26049,45.77519 -101.53034,138.01228 -43.39228,56.95726 -50.41359,65.57334 -53.43623,65.57334 -0.90213,0 -3.26613,-1.72899 -5.25333,-3.84219 z m -18.31903,-83.80112 v -8.75039 l -8.45281,0.29758 -8.45281,0.29758 -0.29758,8.45281 -0.29758,8.45281 h 8.75039 8.75039 z m 31.76208,0.0414 v -8.70896 h -8.19666 -8.19667 v 8.70896 8.70896 h 8.19667 8.19666 z m 31.76209,0 v -8.70896 h -8.19667 -8.19667 v 8.70896 8.70896 h 8.19667 8.19667 z m -11.35738,-58.34089 c 57.72629,-12.46274 103.40965,-59.13825 113.25662,-115.71633 2.13018,-12.23945 2.12716,-40.5753 -0.005,-51.81793 -9.82539,-51.79302 -47.38443,-94.664682 -97.2835,-111.043466 -14.39018,-4.723409 -21.71863,-5.865078 -41.49562,-6.464428 -16.84656,-0.510542 -20.15136,-0.328011 -29.71292,1.641107 -36.45647,7.507886 -67.203859,26.661592 -88.630959,55.211567 -11.673982,15.55468 -21.751658,37.70081 -26.181984,57.53605 -2.793019,12.50476 -2.792347,45.86196 0.0011,58.49274 7.762967,35.09987 27.639876,65.83294 56.122783,86.77536 19.09135,14.03712 43.64661,24.19178 64.83653,26.81268 11.12578,1.3761 39.99572,0.53676 49.09304,-1.42731 z"
     id="path2183" />
  <path
     style="opacity:0.83;fill:#ffffff;stroke:#14532d;stroke-width:5.03417;stroke-linecap:square;stroke-linejoin:round;stroke-dashoffset:46;stroke-opacity:0.0156072;paint-order:markers stroke fill"
     d="m 176.33157,319.60023 c -22.57929,-3.12757 -45.06704,-12.47207 -61.57824,-25.58807 -7.57364,-6.01627 -21.367502,-20.22567 -26.31548,-27.10821 -9.014542,-12.53907 -15.37546,-25.98354 -20.016787,-42.30759 -2.686221,-9.44773 -2.826923,-11.02439 -2.807731,-31.46241 0.02253,-23.98805 1.0681,-29.98112 8.312004,-47.64312 7.255045,-17.68917 15.384178,-29.34136 30.775714,-44.11352 19.9777,-19.173755 40.52877,-29.585014 67.79782,-34.346655 9.52166,-1.662644 12.3176,-1.728748 27.15146,-0.641943 35.01097,2.565084 57.73686,12.937669 82.15392,37.496808 18.74003,18.84908 28.73907,36.69588 34.7911,62.09697 2.23102,9.36383 3.11297,33.30298 1.63373,44.34478 -7.08352,52.87496 -48.70298,96.84142 -102.042,107.79632 -9.99972,2.05377 -30.26772,2.8047 -39.85551,1.47664 z m 95.94179,-96.25364 0.2658,-50.21715 13.31083,9.31923 13.31082,9.31923 3.30038,-3.9276 c 1.8152,-2.16018 3.87264,-4.99501 4.57207,-6.29962 1.15244,-2.14959 0.9488,-2.62998 -2.17157,-5.12292 -11.53711,-9.21723 -81.87268,-60.0311 -102.81964,-74.28194 l -10.04671,-6.835076 -7.8835,5.307366 c -7.52442,5.06561 -84.784108,60.08681 -100.352156,71.46671 -4.085526,2.98642 -7.428229,6.01271 -7.428229,6.72507 0,2.2419 6.575469,11.22441 8.482279,11.58734 1.04504,0.1989 7.054794,-3.39264 14.08802,-8.41927 l 12.265536,-8.76613 v 50.18096 50.18095 h 80.42013 80.42013 z"
     id="path2222" />
  <path
     style="opacity:0.83;fill:#ffffff;stroke:#14532d;stroke-width:5.03417;stroke-linecap:square;stroke-linejoin:round;stroke-dashoffset:46;stroke-opacity:0.0156072;paint-order:markers stroke fill"
     d="m 176.74062,232.58041 v -23.56542 h 15.36875 15.36875 v 23.56542 23.56541 h -15.36875 -15.36875 z"
     id="path2261" />
  <path
     style="opacity:0.83;fill:#ffffff;stroke:#14532d;stroke-width:5.03417;stroke-linecap:square;stroke-linejoin:round;stroke-dashoffset:46;stroke-opacity:0.0156072;paint-order:markers stroke fill"
     d="m 128.63027,208.24655 0.0451,-47.89926 30.76348,-21.83182 c 16.91991,-12.0075 31.30784,-22.02181 31.97316,-22.25403 0.66533,-0.23222 15.2721,9.60105 32.45948,21.85172 l 31.24979,22.27393 0.26628,47.87937 0.26628,47.87936 H 240.27492 224.89603 V 224.38374 192.62166 H 192.10937 159.3227 v 31.76208 31.76208 H 143.95395 128.5852 Z"
     id="path2300" />
</svg>
