<svg width="515" height="216" viewBox="0 0 515 216" fill="none" xmlns="http://www.w3.org/2000/svg">
<path d="M4 1C2.34315 1 1 2.34314 1 4V215H514V4C514 2.34315 512.657 1 511 1H4Z" fill="white"/>
<path d="M80.7421 182.905C77.6663 187.122 77.5324 189.903 79.9632 195.563C77.7481 199.05 77.3075 200.891 78.2105 203.937L96.3211 205.3L177.721 206.469L229.911 208.026L294.174 209.584C298.034 210.825 302.056 211.079 312.479 210.753C318.281 210.293 321.061 209.772 324.553 208.026M80.7421 182.905C78.3915 178.376 78.9895 176.09 81.5211 172.584M80.7421 182.905C82.4483 181.187 83.3825 180.928 85.0263 181.737M81.5211 172.584C78.3111 167.491 78.2244 164.317 81.7158 157.979C79.5737 153.111 79.8192 150.206 82.4947 145.905C81.3788 142.961 81.3413 141.058 82.4947 137.142C79.9704 133.272 79.8321 130.982 82.4947 126.626V122.147M81.5211 172.584C83.0353 170.98 83.8888 170.87 85.4158 172.195M324.553 208.026L341.884 210.753M324.553 208.026C324.207 205.912 323.71 204.717 322.411 202.574L326.111 192.253L324.942 190.111C322.188 187.655 320.884 185.946 319.299 183.869L319.288 183.855C319.101 183.609 318.909 183.358 318.711 183.1C323.279 176.288 324.082 174.024 322.8 172.39C321.011 171.293 320.26 170.368 319.1 168.495C324.588 165.64 326.074 163.687 325.721 159.537L316.958 148.242M341.884 210.753L354.932 209.584H424.258M341.884 210.753C341.278 208.09 341.455 206.425 343.248 202.963M424.258 209.584L427.569 207.637C427.387 205.714 427.095 204.756 426.4 203.158M424.258 209.584C423.411 207.84 423.203 206.63 423.674 203.742M426.4 203.158C427.186 198.025 427.09 195.409 425.816 191.279C426.655 186.254 426.507 183.645 425.037 179.4M426.4 203.158C425.275 202.226 424.686 202.519 423.674 203.742M425.037 179.4C426.202 174.521 426.103 171.662 424.648 166.353C425.56 162.809 425.462 160.674 424.258 156.616C425.677 150.261 425.512 146.759 423.09 140.647C423.931 136.819 423.877 134.736 423.09 131.105M425.037 179.4C424.297 178.525 423.876 178.425 422.7 178.816M423.09 131.105C425.153 125.297 428.219 122.8 434.545 120.574C436.383 119.927 438.01 118.417 437.364 116.579C437.291 116.371 437.207 116.15 437.111 115.916M423.09 131.105C422.463 129.328 422.12 128.894 420.558 129.937M437.111 115.916C437.228 115.474 437.346 115.059 437.457 114.663C437.983 112.804 438.388 111.374 438.084 109.684M437.111 115.916C436.434 114.902 435.722 114.792 434.579 115.332M151.821 126.237L148.9 204.911M86.1948 157.979C84.1872 156.939 83.2145 156.832 81.9105 157.979M86.1948 157.979C88.9877 153.594 89.2203 150.918 86.9737 145.711M86.1948 157.979C89.417 163.738 89.2626 166.85 85.6105 172.195C87.6708 176.617 87.458 178.635 85.0263 181.542C88.1835 187.787 87.8802 190.749 84.0526 195.174C86.0271 198.129 86.3839 200.121 86 204.132M86.9737 145.711C85.3586 144.308 84.3911 144.171 82.4948 145.711M86.9737 145.711C89.0822 142.478 89.3133 140.493 87.5579 136.558M87.3632 136.558C85.316 134.99 84.3128 135.181 82.6895 136.753M316.958 148.242C320.608 146.778 321.963 145.655 322.411 142.79C319.036 138.961 317.776 136.778 315.984 132.858M316.958 148.242C314.766 146.657 313.065 146.186 309.169 146.1M315.984 132.858C321.791 130.283 323.697 128.509 323.579 124.484M315.984 132.858L307.805 130.326M323.579 124.484C320.287 121.45 318.942 118.505 316.569 113.19C320.459 110.832 321.995 109.36 323.19 106.374C319.238 102.739 318.292 100.568 317.153 96.6369C320.712 94.9649 322.187 93.5342 323.384 89.6263L360.384 84.5632C357.821 80.9211 356.975 78.3409 357.269 72.1M323.579 124.484L340.911 122.537M366.032 85.7316C364.686 83.5337 363.346 83.392 360.19 84.5632C347.973 90.7535 343.251 94.7454 341.3 103.453M366.032 85.7316C367.88 77.9169 367.165 73.9434 364.279 67.2316M366.032 85.7316C358.186 91.8892 353.957 95.9347 346.948 105.011M346.948 105.011C350.08 112.338 349.817 116.535 346.948 124.095M346.948 105.011C345.127 101.231 343.835 101.345 341.3 103.453M346.948 105.011L351.621 107.542C352.71 109.377 353.492 110.941 353.886 112.411M346.948 124.095C349.495 130.524 349.953 134.28 347.921 141.426M346.948 124.095C344.956 121.08 343.592 121.015 340.911 122.537M347.921 141.426C350.591 149.963 350.705 153.99 347.921 159.537M347.921 141.426C345.596 138.244 344.225 138.141 341.69 140.258M347.921 159.537C349.953 164.905 350.021 167.572 348.505 171.805M347.921 159.537C345.733 156.534 344.602 156.706 342.663 158.563M348.505 171.805C351.974 181.159 352.167 185.294 349.09 190.5M348.505 171.805C346.332 169.281 345.022 170.001 342.663 171.805M349.09 190.5C350.779 195.577 351.183 198.35 349.479 202.963M349.09 190.5C347.851 189.731 347.168 189.723 343.832 190.5M349.479 202.963C351.299 206.172 351.889 207.688 352.011 209.779M349.479 202.963C347.767 201.03 346.344 201.187 343.248 202.963M343.248 202.963H322.605L320.463 201.211L308.974 200.432M343.248 202.963C341.955 198.009 342.529 195.278 343.832 190.5M325.137 190.111L343.832 190.5M343.832 190.5C340.534 182.677 339.754 178.572 342.663 171.805M323.19 172.974L342.663 171.805M342.663 171.805C340.804 165.954 340.655 163.001 342.663 158.563M325.526 159.537L342.663 158.563M342.663 158.563C339.477 151.4 339.639 147.394 341.69 140.258M322.411 142.595L341.69 140.258M341.69 140.258C338.793 132.35 338.895 128.574 340.911 122.537M340.911 122.537C337.86 115.395 338.004 111.211 341.3 103.453M322.995 106.179L341.3 103.453M301.769 90.7948L297.484 91.379C290.592 100.302 290.22 104.656 295.926 111.242M295.926 111.242C289.438 120.074 289.927 124.342 297.095 130.911M295.926 111.242C299.804 107.708 302.295 107.509 307.221 109.879M297.095 130.911C293.126 136.26 293.038 139.621 295.732 146.1M297.095 130.911C301.024 128.656 303.392 128.714 307.805 130.326M295.732 146.1C289.576 153.519 289.344 157.978 297.679 166.742M295.732 146.1C301.569 143.137 304.482 143.281 309.169 146.1M297.679 166.742C294.123 172.598 294.071 175.632 297.679 180.568M297.679 166.742C301.19 164.679 303.467 164.59 308.195 166.742M297.679 180.568C292.418 189.828 292.602 194.032 298.263 199.847M297.679 180.568C302.462 178.554 304.771 178.575 308.195 180.763M298.263 199.847C295.503 203.607 294.949 205.835 295.342 209.974M298.263 199.847C303.131 198.151 305.511 198.349 309.169 200.626M309.169 200.626C312.304 203.734 313.295 205.712 312.674 209.974M309.169 200.626C314.923 193.522 315.215 189.227 308.195 180.763M308.195 180.763C312.3 175.492 312.222 172.418 308.195 166.742M308.195 180.763L318.321 182.126L319.1 183.295M308.195 166.742L318.905 168.69M308.195 166.742C315.592 158.673 314.415 154.155 309.169 146.1M309.169 146.1C312.174 139.402 311.711 135.973 307.805 130.326M307.805 130.326C313.91 122.193 314.309 117.704 307.221 109.879M307.221 109.879C313.202 102.686 313.632 98.8019 308.779 92.1579L306.442 90.2105M86 204.326H97.6842C98.0696 202.543 98.5725 201.42 99.8263 199.263C98.9938 198.477 98.6374 197.974 98.2684 196.926C100.017 194.121 100.671 192.434 101.579 189.332C99.0653 187.837 98.0411 186.772 96.9053 184.463C96.5765 183.928 96.6135 183.528 96.9053 182.711C98.7042 181.007 99.555 179.851 100.8 177.453M100.8 177.453C98.9559 176.491 98.2247 175.789 97.2947 174.337C99.5747 171.683 100.587 169.925 101.968 166.353C98.4763 164.158 97.3922 162.629 97.1 159.342C99.5779 158.178 100.703 157.175 102.163 154.668C99.5315 152.55 98.5058 151.102 97.4895 148.047C100.605 145.753 101.623 144.428 102.358 142.011C100.82 141.508 99.6316 139.479 99.6316 139.479M100.8 177.453L102.358 176.674L120.274 176.09M99.6316 139.479C99.6316 139.479 102.86 135.829 104.111 132.468C99.045 129.715 98.2052 128.036 99.2421 124.874M99.6316 139.479L87.5579 136.558M99.2421 124.874C101.28 123.787 101.805 121.294 101.968 119.811M99.2421 124.874C98.619 124.874 89.1158 123.056 84.4421 122.147M87.5579 136.558C92.1663 130.633 90.924 125.501 87.8735 124.55M82.6895 126.432C84.4058 124.727 86.1475 124.172 87.5579 124.468M87.5579 124.468C87.6651 124.49 87.7703 124.517 87.8735 124.55M87.5579 124.468L87.8735 124.55M87.8735 124.55L98.8527 127.405M84.0526 195.369C82.6668 194.318 81.8247 194.235 80.1579 195.369M307.611 109.684L316.569 112.995M317.542 96.8316L306.637 90.0158M123.195 125.068L180.837 117.084L183.563 121.953M178.111 206.469C179.052 203.314 179.9 201.712 182.2 199.263C179.685 194.943 179.849 192.416 182.2 187.774C180.13 181.881 180.144 178.946 182.784 174.532C180.664 170.037 180.274 167.44 183.174 162.458C180.664 157.431 180.654 154.736 183.563 150.19C180.803 144.905 179.811 141.863 183.953 135.584C180.411 130.114 180.343 127.13 183.563 121.953M183.563 121.953L226.079 117.682M376.937 56.5211C382.038 62.3557 383.296 65.3924 382.39 70.3474C389.994 76.2566 392.245 79.7709 391.542 86.5106C396.914 90.2571 398.348 93.3104 397.969 100.532C402.274 105.075 403.879 107.877 402.642 114.163C406.656 118.281 407.048 120.921 403.227 126.432C404.276 128.685 404.787 130.432 404.767 132.079M404.784 199.458L409.458 203.158M404.784 199.458C407.458 196.06 408.371 193.738 407.469 191.474M404.784 199.458C387.832 197.941 376.504 198.815 361.185 199.996L361.182 199.996C357.717 200.264 354.048 200.547 350.063 200.821M409.458 203.158C409.526 205.9 409.042 207.303 407.316 209.584M409.458 203.158L423.674 203.742M423.674 203.742C422.209 198.81 422.111 195.949 423.09 190.695M407.469 191.474C406.921 190.101 405.706 188.748 403.811 187.19C405.885 184.056 406.649 181.778 406.192 179.4M407.469 191.474C412.821 190.464 416.22 190.273 423.09 190.695M423.09 190.695C424.69 190.652 425.155 190.874 425.621 191.474M423.09 190.695C421.656 186.055 421.701 183.454 422.7 178.816M406.192 179.4C405.883 177.792 405.015 176.138 403.616 174.142C405.258 170.878 405.786 168.62 405.345 166.547M406.192 179.4C412.226 178.757 415.83 178.619 422.7 178.816M422.7 178.816C420.896 173.992 420.799 171.116 421.803 165.766M402.642 161.679C404.08 163.446 405.004 164.941 405.345 166.547M402.642 161.679C403.961 159.914 404.672 158.401 404.824 156.811M402.642 161.679L370.9 155.837M405.345 166.547C411.648 165.801 415.269 165.626 421.803 165.766M421.803 165.766L421.921 165.769M421.803 165.766C423.078 165.114 423.692 165.241 424.648 166.158M421.803 165.766C420.623 162.188 420.546 160.185 420.948 156.616M404.824 156.811C405.023 154.726 404.261 152.507 402.642 149.411C404.36 146.242 405.113 144.05 404.777 142.011M404.824 156.811L420.948 156.616M420.948 156.616C422.224 155.462 422.928 155.049 424.063 156.616M420.948 156.616C419.501 149.793 419.572 146.16 420.558 139.868M404.777 142.011C404.554 140.66 403.855 139.377 402.642 137.921C404.031 135.703 404.743 133.956 404.767 132.079M404.777 142.011L409.848 140.453L420.558 139.868M420.558 139.868C422.061 139.467 422.505 139.667 422.895 140.453M420.558 139.868C419.556 136.097 419.62 133.916 420.558 129.937M404.767 132.079L409.263 130.716L420.558 129.937M420.558 129.937C421.378 123.03 423.881 120.49 431.853 118.253C432.389 116.902 432.812 116.194 434.579 115.332M434.579 115.332C433.143 111.645 433.237 109.411 434.579 105.205M434.579 105.205H435.748M434.579 105.205C433.956 105.205 413.288 107.282 403.032 108.321M354.348 114.358L361.942 116.695L362.332 160.121L357.074 159.342M370.9 114.942L351.816 107.542M370.9 114.942L403.032 126.237M370.9 114.942C372.893 120.513 372.792 123.252 370.9 127.6M356.49 94.1053L402.642 114.358M398.163 100.532L366.032 85.5369M391.542 86.9L366.616 74.2421M382.39 70.5421L369.537 62.7526M84.4421 195.174L98.4632 196.926M96.9053 183.1L85.0263 181.932M97.4895 174.337L85.8053 172.39M96.9053 159.342L86.3895 157.979M97.6842 148.047L87.1684 145.711M99.8263 199.069H118.911M101.189 188.942H119.69M120.274 176.09L120.858 164.99M120.274 176.09L119.884 189.137L119.105 199.069M120.274 176.09C116.551 181.158 116.417 183.974 119.884 188.942C117.216 192.697 117.003 194.91 119.105 199.069M120.274 176.09C117.271 172.166 117.338 169.744 120.858 164.99M101.774 166.353L102.358 165.963L120.858 164.99M120.858 164.99L121.247 153.305M120.858 164.99C117.513 160.65 117.28 158.114 121.442 153.305M102.358 154.474L121.442 153.305M121.442 153.305L122.026 140.453M121.442 153.305C118.049 147.948 118.234 145.143 121.832 140.453C119.864 137.116 119.578 135.016 122.416 130.326M102.358 141.816L104.305 141.037L122.026 140.453M122.026 140.453L122.416 130.326M104.305 132.468L105.084 131.69L122.416 130.326M122.416 130.326L123 125.068H120.274L99.2421 126.042M122.416 130.326C120.466 128.872 119.765 127.791 119.69 125.068M119.105 199.069V205.69M119.105 199.069C116.68 201.355 115.802 202.797 115.211 205.69M226.079 117.682L226.211 117.668M226.079 117.682L226.211 108.711L227.184 105.79L273.726 99.7527C273.148 104.267 273.668 106.589 274.895 110.658M226.079 117.682L225.858 132.687M183.563 135.584L225.858 132.687M225.858 132.687L226.211 132.663M225.858 132.687L225.432 161.679M183.563 149.995L225.432 148.826M183.563 162.458L225.432 161.679M225.432 161.679L224.653 162.847L274.895 161.679V159.147M182.59 174.532L295.148 172M292.032 159.147H274.895M274.895 159.147C273.539 153.562 273.179 150.403 275.869 144.542M295.148 143.374C293.434 143.218 281.581 144.088 275.869 144.542M275.869 144.542C273.589 137.85 273.236 134.098 275.869 127.405M292.811 125.847L275.869 127.405M275.869 127.405C273.726 121.521 272.927 118.072 274.895 110.658M293.59 108.321L274.895 110.658M182.395 187.968H294.369M182.395 199.653H297.874M434.579 114.942L405.369 118.253M403.421 186.995L351.426 183.879M349.479 169.274L403.421 174.142M370.9 155.837C373.831 150.213 373.383 147.437 370.9 142.79M370.9 155.837C373.317 158.448 374.323 160.056 374.405 163.626M370.9 142.79L402.642 149.605M370.9 142.79C373.741 136.79 373.814 133.462 370.9 127.6M402.642 137.726L370.9 127.6M374.405 163.626V164.6L357.269 162.458V160.9M374.405 163.626L365.837 162.263M357.269 160.9L365.837 162.263M357.269 160.9C357.086 159.855 356.882 158.956 356.638 158.174M351.232 138.311C354.803 143.739 355.179 146.875 351.426 152.721M351.232 138.311C356.596 132.165 355.711 127.6 350.842 121.563M351.232 138.311H348.7M351.426 152.721H350.063M351.426 152.721C354.265 153.942 355.723 155.235 356.638 158.174M350.842 121.563C349.943 120.855 349.356 120.697 348.116 120.979M350.842 121.563C353.89 117.95 354.68 115.375 353.886 112.411M365.837 162.263L364.474 115.721L353.886 112.411M354.153 115.721L359.995 118.058L360.579 158.563L356.638 158.174M56.7895 120.979L340.911 73.2684L401.669 31.7895L446.069 125.847M267.105 48.5368L265.937 48.1474V45.6158L267.495 45.4211M267.105 48.5368C267.077 49.1381 267.043 50.0274 267.028 50.8737M267.105 48.5368L283.269 44.4474V47.3684M267.495 45.4211V43.2789L275.382 41.2342M267.495 45.4211L283.269 41.7211L295.342 47.3684L298.848 46.3947L285.216 39.9684M275.382 41.2342L283.269 39.1895L285.216 39.9684M275.382 41.2342V36.6579C278.859 34.6967 280.935 34.5447 284.826 35.6842L285.216 39.9684M267.105 53.2105C267.018 52.9493 267.008 51.946 267.028 50.8737M267.028 50.8737L283.269 47.3684M283.269 47.3684V49.7053M271.39 50.0947V47.3684M279.374 45.4211V47.9526M273.726 46.7842V44.0579M275.869 46.2L275.674 43.6684M279.374 42.5V40.3579M271 44.6421V42.5M288.137 44.0579V41.3316M293.979 44.0579V46.7842M291.058 47.5112L283.463 44.6421V39.1895M291.058 47.5112L292.226 47.9526M291.058 47.5112V45.4211M75.2895 109.879L344.221 61.846M344.221 61.846L333.9 68.9842M344.221 61.846L350.647 57.4015M84.2474 106.568L350.647 57.4015M350.647 57.4015L359.411 51.3407M92.8158 102.284L359.411 51.3407M359.411 51.3407L398.942 24M401.669 105.79L434.384 102.674M433.411 100.337L400.111 103.258M432.048 97.0263L398.358 100.921M430.49 94.4948L398.358 98.1948M428.932 91.5737L397.774 95.079M428.153 89.0421L397.19 92.3527M426.79 85.9263L395.242 89.6263M425.232 83.0053L391.932 87.0948M423.284 80.0842L391.932 84.1737M422.311 77.5526L391.348 81.4474M420.948 74.8263L390.569 78.9158M419.39 71.7105L389.011 76.579M417.832 68.5947L386.09 73.2684M416.079 65.479L382.779 70.3474M414.911 62.1684L382.779 67.0368M413.742 59.2474L382 64.1158M411.99 55.9368L380.832 61.1947M410.042 52.4316L378.884 58.4684M408.679 49.5105L378.3 55.3526M406.927 46.2L382.779 51.6526M405.758 44.2526C405.447 44.0968 392.905 47.0439 386.674 48.5368M404.979 42.3053L390.569 45.4211M59.5158 117.279L334.484 68.9842M63.0211 115.137L338.184 65.8684M104.305 98.5842L152.211 88.8474M153.379 87.679L114.042 94.8842M157.079 86.1211L122.416 91.379M160.779 84.1737L128.063 88.8474M164.868 82.4211L131.763 87.2895M170.516 79.6947L135.658 85.5369M246.658 70.3474L174.995 84.5632M253.279 66.2579L181.226 80.8632M256.2 64.8947C255.889 64.8947 208.684 73.8526 185.121 78.3316M190.184 75.4105L260.874 62.1684M264.184 60.0263L140.721 83.2M278.011 63.9211L364.279 47.7579M371.484 43.2789L282.879 60.4158M376.353 39.3842C375.885 39.54 320.074 50.3544 292.226 55.7421M294.953 53.0158L382 35.4895M387.453 31.7895L146.174 81.4474M1 4C1 2.34314 2.34315 1 4 1H511C512.657 1 514 2.34315 514 4V215H1V4ZM57.179 125.847L341.105 85.3421L401.279 36.6579V40.9421L404.005 42.5V39.9684L445.874 125.847L447.432 122.147L401.279 24.3895L144.811 79.6948L57.179 116.111V120.395L50.1684 122.147L53.2842 124.484L57.179 123.705V125.847ZM127.284 128.963L123.195 204.326L177.916 205.884L180.447 123.121L127.284 128.963ZM130.205 133.442L148.316 131.3L145.784 200.042H127.09L130.205 133.442ZM155.716 130.521L176.163 127.99L174.021 200.626H153.379L155.716 130.521ZM255.032 111.826L254.447 155.642L270.221 154.863V109.879L255.032 111.826ZM233.026 114.358L247.437 112.605V155.642L232.247 156.616L233.026 114.358ZM228.742 160.705L230.105 110.853L249.969 108.711V159.537L228.742 160.705ZM251.716 108.331L251.137 159.732L273.726 158.953V105.595L251.716 108.331ZM272.947 63.9211L287.942 55.7421L268.469 59.4421L253.279 67.4263L272.947 63.9211ZM273.726 66.0632L246.463 70.1526L264.963 60.0263L264.379 58.2737L267.105 56.9105L292.811 52.0421L294.953 53.2105L292.032 55.9368L289.695 56.3263L273.726 66.0632ZM156.3 87.2895L172.853 84.5632L189.016 75.8L174.021 79.5L156.3 87.2895ZM173.826 84.9526L190.768 75.2158L173.242 78.7211L152.99 88.0684L173.826 84.9526Z" stroke="#14532D"/>
</svg>
