<svg width="399" height="189" viewBox="0 0 399 189" fill="none" xmlns="http://www.w3.org/2000/svg">
<path d="M31.7421 159.905C28.6663 164.122 28.5324 166.903 30.9632 172.563C28.7481 176.05 28.3075 177.891 29.2105 180.937L47.3211 182.3L128.721 183.469L180.911 185.026L245.174 186.584C249.034 187.825 253.056 188.079 263.479 187.753C269.281 187.293 272.061 186.772 275.553 185.026M31.7421 159.905C29.3915 155.376 29.9895 153.09 32.5211 149.584M31.7421 159.905C33.4483 158.187 34.3825 157.928 36.0263 158.737M32.5211 149.584C29.3111 144.491 29.2244 141.317 32.7158 134.979C30.5737 130.111 30.8192 127.206 33.4947 122.905C32.3788 119.961 32.3413 118.058 33.4947 114.142C30.9704 110.272 30.8321 107.982 33.4947 103.626V99.1474M32.5211 149.584C34.0353 147.98 34.8888 147.87 36.4158 149.195M275.553 185.026L292.884 187.753M275.553 185.026C275.207 182.912 274.71 181.717 273.411 179.574L277.111 169.253L275.942 167.111C273.188 164.655 271.884 162.946 270.299 160.869L270.288 160.855C270.101 160.609 269.909 160.358 269.711 160.1C274.279 153.288 275.082 151.024 273.8 149.39C272.011 148.293 271.26 147.368 270.1 145.495C275.588 142.64 277.074 140.687 276.721 136.537L267.958 125.242M292.884 187.753L305.932 186.584H375.258M292.884 187.753C292.278 185.09 292.455 183.425 294.248 179.963M375.258 186.584L378.569 184.637C378.387 182.714 378.095 181.756 377.4 180.158M375.258 186.584C374.411 184.84 374.203 183.63 374.674 180.742M377.4 180.158C378.186 175.025 378.09 172.409 376.816 168.279C377.655 163.254 377.507 160.645 376.037 156.4M377.4 180.158C376.275 179.226 375.686 179.519 374.674 180.742M376.037 156.4C377.202 151.521 377.103 148.662 375.648 143.353C376.56 139.809 376.462 137.674 375.258 133.616C376.677 127.261 376.512 123.759 374.09 117.647C374.931 113.819 374.877 111.736 374.09 108.105M376.037 156.4C375.297 155.526 374.876 155.425 373.7 155.816M374.09 108.105C376.153 102.297 379.219 99.8002 385.545 97.5738C387.383 96.927 389.01 95.4172 388.364 93.5791C388.291 93.3706 388.207 93.1505 388.111 92.9158M374.09 108.105C373.463 106.328 373.12 105.894 371.558 106.937M388.111 92.9158C388.228 92.4744 388.346 92.0591 388.457 91.6632C388.983 89.804 389.388 88.3737 389.084 86.6842M388.111 92.9158C387.434 91.9019 386.722 91.7921 385.579 92.3316M102.821 103.237L99.9001 181.911M37.1948 134.979C35.1872 133.939 34.2145 133.832 32.9105 134.979M37.1948 134.979C39.9877 130.594 40.2203 127.918 37.9737 122.711M37.1948 134.979C40.417 140.738 40.2626 143.85 36.6105 149.195C38.6708 153.617 38.458 155.635 36.0263 158.542C39.1835 164.787 38.8802 167.749 35.0526 172.174C37.0271 175.129 37.3839 177.121 37 181.132M37.9737 122.711C36.3586 121.308 35.3911 121.171 33.4948 122.711M37.9737 122.711C40.0822 119.478 40.3133 117.493 38.5579 113.558M38.3632 113.558C36.316 111.99 35.3128 112.181 33.6895 113.753M267.958 125.242C271.608 123.778 272.963 122.655 273.411 119.79C270.036 115.961 268.776 113.778 266.984 109.858M267.958 125.242C265.766 123.657 264.065 123.186 260.169 123.1M266.984 109.858C272.791 107.283 274.697 105.509 274.579 101.484M266.984 109.858L258.805 107.326M274.579 101.484C271.287 98.4498 269.942 95.5048 267.569 90.1895C271.459 87.8319 272.995 86.3596 274.19 83.3737C270.238 79.739 269.292 77.5675 268.153 73.6369C271.712 71.9649 273.187 70.5342 274.384 66.6264L311.384 61.5632C308.821 57.9211 307.975 55.3409 308.269 49.1M274.579 101.484L291.911 99.5369M317.032 62.7316C315.686 60.5337 314.346 60.392 311.19 61.5632C298.973 67.7535 294.251 71.7454 292.3 80.4527M317.032 62.7316C318.88 54.9169 318.165 50.9434 315.279 44.2316M317.032 62.7316C309.186 68.8892 304.957 72.9347 297.948 82.0106M297.948 82.0106C301.08 89.3382 300.817 93.5352 297.948 101.095M297.948 82.0106C296.127 78.2307 294.835 78.3455 292.3 80.4527M297.948 82.0106L302.621 84.5421C303.71 86.3766 304.492 87.9415 304.886 89.4106M297.948 101.095C300.495 107.524 300.953 111.28 298.921 118.426M297.948 101.095C295.956 98.0796 294.592 98.0149 291.911 99.5369M298.921 118.426C301.591 126.963 301.705 130.99 298.921 136.537M298.921 118.426C296.596 115.244 295.225 115.141 292.69 117.258M298.921 136.537C300.953 141.905 301.021 144.572 299.505 148.805M298.921 136.537C296.733 133.534 295.602 133.706 293.663 135.563M299.505 148.805C302.974 158.159 303.167 162.294 300.09 167.5M299.505 148.805C297.332 146.281 296.022 147.001 293.663 148.805M300.09 167.5C301.779 172.577 302.183 175.35 300.479 179.963M300.09 167.5C298.851 166.731 298.168 166.723 294.832 167.5M300.479 179.963C302.299 183.172 302.889 184.688 303.011 186.779M300.479 179.963C298.767 178.03 297.344 178.187 294.248 179.963M294.248 179.963H273.605L271.463 178.211L259.974 177.432M294.248 179.963C292.955 175.009 293.529 172.278 294.832 167.5M276.137 167.111L294.832 167.5M294.832 167.5C291.534 159.677 290.754 155.572 293.663 148.805M274.19 149.974L293.663 148.805M293.663 148.805C291.804 142.954 291.655 140.001 293.663 135.563M276.526 136.537L293.663 135.563M293.663 135.563C290.477 128.4 290.639 124.394 292.69 117.258M273.411 119.595L292.69 117.258M292.69 117.258C289.793 109.35 289.895 105.574 291.911 99.5369M291.911 99.5369C288.86 92.3953 289.004 88.2111 292.3 80.4527M273.995 83.179L292.3 80.4527M252.769 67.7948L248.484 68.379C241.592 77.3015 241.22 81.6563 246.926 88.2421M246.926 88.2421C240.438 97.0742 240.927 101.342 248.095 107.911M246.926 88.2421C250.804 84.7076 253.295 84.5087 258.221 86.879M248.095 107.911C244.126 113.26 244.038 116.621 246.732 123.1M248.095 107.911C252.024 105.656 254.392 105.714 258.805 107.326M246.732 123.1C240.576 130.519 240.344 134.978 248.679 143.742M246.732 123.1C252.569 120.137 255.482 120.281 260.169 123.1M248.679 143.742C245.123 149.598 245.071 152.632 248.679 157.569M248.679 143.742C252.19 141.679 254.467 141.59 259.195 143.742M248.679 157.569C243.418 166.828 243.602 171.032 249.263 176.847M248.679 157.569C253.462 155.554 255.771 155.575 259.195 157.763M249.263 176.847C246.503 180.607 245.949 182.835 246.342 186.974M249.263 176.847C254.131 175.151 256.511 175.349 260.169 177.626M260.169 177.626C263.304 180.734 264.295 182.712 263.674 186.974M260.169 177.626C265.923 170.522 266.215 166.227 259.195 157.763M259.195 157.763C263.3 152.492 263.222 149.418 259.195 143.742M259.195 157.763L269.321 159.126L270.1 160.295M259.195 143.742L269.905 145.69M259.195 143.742C266.592 135.673 265.415 131.155 260.169 123.1M260.169 123.1C263.174 116.402 262.711 112.973 258.805 107.326M258.805 107.326C264.91 99.193 265.309 94.7037 258.221 86.879M258.221 86.879C264.202 79.6863 264.632 75.8019 259.779 69.1579L257.442 67.2106M37 181.326H48.6842C49.0696 179.543 49.5725 178.42 50.8263 176.263C49.9938 175.477 49.6374 174.974 49.2684 173.926C51.0168 171.122 51.6708 169.434 52.579 166.332C50.0653 164.837 49.0411 163.772 47.9053 161.463C47.5765 160.928 47.6135 160.528 47.9053 159.711C49.7042 158.007 50.555 156.851 51.8 154.453M51.8 154.453C49.9559 153.491 49.2247 152.789 48.2947 151.337C50.5747 148.683 51.5875 146.925 52.9684 143.353C49.4763 141.158 48.3922 139.629 48.1 136.342C50.5779 135.178 51.7026 134.175 53.1632 131.668C50.5315 129.55 49.5058 128.102 48.4895 125.047C51.6054 122.753 52.6231 121.428 53.3579 119.011C51.8195 118.508 50.6316 116.479 50.6316 116.479M51.8 154.453L53.3579 153.674L71.2737 153.09M50.6316 116.479C50.6316 116.479 53.8598 112.829 55.1105 109.468C50.045 106.715 49.2052 105.036 50.2421 101.874M50.6316 116.479L38.5579 113.558M50.2421 101.874C52.2803 100.787 52.8046 98.2943 52.9684 96.8106M50.2421 101.874C49.619 101.874 40.1158 100.056 35.4421 99.1474M38.5579 113.558C43.1663 107.633 41.924 102.501 38.8735 101.55M33.6895 103.432C35.4058 101.727 37.1475 101.172 38.5579 101.468M38.5579 101.468C38.6651 101.49 38.7703 101.517 38.8735 101.55M38.5579 101.468L38.8735 101.55M38.8735 101.55L49.8527 104.405M35.0526 172.369C33.6668 171.318 32.8247 171.235 31.1579 172.369M258.611 86.6843L267.569 89.9948M268.542 73.8316L257.637 67.0158M74.1948 102.068L131.837 94.0843L134.563 98.9527M129.111 183.469C130.052 180.314 130.9 178.712 133.2 176.263C130.685 171.943 130.849 169.416 133.2 164.774C131.13 158.881 131.144 155.946 133.784 151.532C131.664 147.037 131.274 144.44 134.174 139.458C131.664 134.431 131.654 131.736 134.563 127.19C131.803 121.905 130.811 118.863 134.953 112.584C131.411 107.114 131.343 104.13 134.563 98.9527M134.563 98.9527L177.079 94.6817M327.937 33.5211C333.038 39.3557 334.296 42.3924 333.39 47.3474C340.994 53.2566 343.245 56.7709 342.542 63.5106C347.914 67.2571 349.348 70.3104 348.969 77.5316C353.274 82.0754 354.879 84.8771 353.642 91.1632C357.656 95.2813 358.048 97.9206 354.227 103.432C355.276 105.685 355.787 107.432 355.767 109.079M355.784 176.458L360.458 180.158M355.784 176.458C358.458 173.06 359.371 170.738 358.469 168.474M355.784 176.458C338.832 174.941 327.504 175.815 312.185 176.996L312.182 176.996C308.717 177.264 305.048 177.547 301.063 177.821M360.458 180.158C360.526 182.9 360.042 184.303 358.316 186.584M360.458 180.158L374.674 180.742M374.674 180.742C373.209 175.81 373.111 172.949 374.09 167.695M358.469 168.474C357.921 167.101 356.706 165.748 354.811 164.19C356.885 161.056 357.649 158.778 357.192 156.4M358.469 168.474C363.821 167.464 367.22 167.273 374.09 167.695M374.09 167.695C375.69 167.652 376.155 167.874 376.621 168.474M374.09 167.695C372.656 163.055 372.701 160.454 373.7 155.816M357.192 156.4C356.883 154.792 356.015 153.138 354.616 151.142C356.258 147.878 356.786 145.62 356.345 143.547M357.192 156.4C363.226 155.757 366.83 155.619 373.7 155.816M373.7 155.816C371.896 150.992 371.799 148.116 372.803 142.766M353.642 138.679C355.08 140.446 356.004 141.941 356.345 143.547M353.642 138.679C354.961 136.914 355.672 135.401 355.824 133.811M353.642 138.679L321.9 132.837M356.345 143.547C362.648 142.801 366.269 142.626 372.803 142.766M372.803 142.766L372.921 142.769M372.803 142.766C374.078 142.114 374.692 142.241 375.648 143.158M372.803 142.766C371.623 139.188 371.546 137.185 371.948 133.616M355.824 133.811C356.023 131.726 355.261 129.507 353.642 126.411C355.36 123.242 356.113 121.05 355.777 119.011M355.824 133.811L371.948 133.616M371.948 133.616C373.224 132.462 373.928 132.049 375.063 133.616M371.948 133.616C370.501 126.793 370.572 123.16 371.558 116.868M355.777 119.011C355.554 117.66 354.855 116.377 353.642 114.921C355.031 112.703 355.743 110.956 355.767 109.079M355.777 119.011L360.848 117.453L371.558 116.868M371.558 116.868C373.061 116.467 373.505 116.667 373.895 117.453M371.558 116.868C370.556 113.097 370.62 110.916 371.558 106.937M355.767 109.079L360.263 107.716L371.558 106.937M371.558 106.937C372.378 100.03 374.881 97.4903 382.853 95.2527C383.389 93.9021 383.812 93.1938 385.579 92.3316M385.579 92.3316C384.143 88.6453 384.237 86.4106 385.579 82.2053M385.579 82.2053H386.748M385.579 82.2053C384.956 82.2053 364.288 84.2825 354.032 85.3211M305.348 91.3579L312.942 93.6948L313.332 137.121L308.074 136.342M321.9 91.9421L302.816 84.5421M321.9 91.9421L354.032 103.237M321.9 91.9421C323.893 97.5126 323.792 100.252 321.9 104.6M307.49 71.1053L353.642 91.3579M349.163 77.5316L317.032 62.5369M342.542 63.9L317.616 51.2421M333.39 47.5421L320.537 39.7526M35.4421 172.174L49.4632 173.926M47.9053 160.1L36.0263 158.932M48.4895 151.337L36.8053 149.39M47.9053 136.342L37.3895 134.979M48.6842 125.047L38.1684 122.711M50.8263 176.069H69.9106M52.1895 165.942H70.6895M71.2737 153.09L71.8579 141.99M71.2737 153.09L70.8842 166.137L70.1053 176.069M71.2737 153.09C67.551 158.158 67.4174 160.974 70.8843 165.942C68.2164 169.697 68.0032 171.91 70.1053 176.069M71.2737 153.09C68.2711 149.166 68.3381 146.744 71.8579 141.99M52.7737 143.353L53.3579 142.963L71.8579 141.99M71.8579 141.99L72.2474 130.305M71.8579 141.99C68.5127 137.65 68.2805 135.114 72.4421 130.305M53.3579 131.474L72.4421 130.305M72.4421 130.305L73.0264 117.453M72.4421 130.305C69.0493 124.948 69.234 122.143 72.8316 117.453C70.8644 114.116 70.5776 112.016 73.4158 107.326M53.3579 118.816L55.3053 118.037L73.0264 117.453M73.0264 117.453L73.4158 107.326M55.3053 109.468L56.0842 108.69L73.4158 107.326M73.4158 107.326L74 102.068H71.2737L50.2421 103.042M73.4158 107.326C71.4658 105.872 70.7649 104.791 70.6895 102.068M70.1053 176.069V182.69M70.1053 176.069C67.6797 178.355 66.8025 179.797 66.2105 182.69M177.079 94.6817L177.211 94.6685M177.079 94.6817L177.211 85.7106L178.184 82.7895L224.726 76.7527C224.148 81.2671 224.668 83.5895 225.895 87.6579M177.079 94.6817L176.858 109.687M134.563 112.584L176.858 109.687M176.858 109.687L177.211 109.663M176.858 109.687L176.432 138.679M134.563 126.995L176.432 125.826M134.563 139.458L176.432 138.679M176.432 138.679L175.653 139.847L225.895 138.679V136.147M133.59 151.532L246.148 149M243.032 136.147H225.895M225.895 136.147C224.539 130.562 224.179 127.403 226.869 121.542M246.148 120.374C244.434 120.218 232.581 121.088 226.869 121.542M226.869 121.542C224.589 114.85 224.236 111.098 226.869 104.405M243.811 102.847L226.869 104.405M226.869 104.405C224.726 98.5209 223.927 95.0723 225.895 87.6579M244.59 85.3211L225.895 87.6579M133.395 164.968H245.369M133.395 176.653H248.874M385.579 91.9421L356.369 95.2527M354.421 163.995L302.426 160.879M300.479 146.274L354.421 151.142M321.9 132.837C324.831 127.213 324.383 124.437 321.9 119.79M321.9 132.837C324.317 135.448 325.323 137.056 325.405 140.626M321.9 119.79L353.642 126.605M321.9 119.79C324.741 113.79 324.814 110.462 321.9 104.6M353.642 114.726L321.9 104.6M325.405 140.626V141.6L308.269 139.458V137.9M325.405 140.626L316.837 139.263M308.269 137.9L316.837 139.263M308.269 137.9C308.086 136.855 307.882 135.956 307.638 135.174M302.232 115.311C305.803 120.739 306.179 123.875 302.426 129.721M302.232 115.311C307.596 109.165 306.711 104.6 301.842 98.5632M302.232 115.311H299.7M302.426 129.721H301.063M302.426 129.721C305.265 130.942 306.723 132.235 307.638 135.174M301.842 98.5632C300.943 97.8547 300.356 97.6973 299.116 97.979M301.842 98.5632C304.89 94.9502 305.68 92.3755 304.886 89.4106M316.837 139.263L315.474 92.7211L304.886 89.4106M305.153 92.7211L310.995 95.0579L311.579 135.563L307.638 135.174M7.78947 97.979L291.911 50.2684L352.669 8.78947L397.069 102.847M218.105 25.5369L216.937 25.1474V22.6158L218.495 22.4211M218.105 25.5369C218.077 26.1381 218.043 27.0274 218.028 27.8737M218.105 25.5369L234.269 21.4474V24.3684M218.495 22.4211V20.279L226.382 18.2342M218.495 22.4211L234.269 18.7211L246.342 24.3684L249.848 23.3947L236.216 16.9684M226.382 18.2342L234.269 16.1895L236.216 16.9684M226.382 18.2342V13.6579C229.859 11.6967 231.935 11.5447 235.826 12.6842L236.216 16.9684M218.105 30.2105C218.018 29.9493 218.008 28.946 218.028 27.8737M218.028 27.8737L234.269 24.3684M234.269 24.3684V26.7053M222.39 27.0947V24.3684M230.374 22.4211V24.9526M224.726 23.7842V21.0579M226.869 23.2L226.674 20.6684M230.374 19.5V17.3579M222 21.6421V19.5M239.137 21.0579V18.3316M244.979 21.0579V23.7842M242.058 24.5112L234.463 21.6421V16.1895M242.058 24.5112L243.226 24.9526M242.058 24.5112V22.4211M26.2895 86.879L295.221 38.846M295.221 38.846L284.9 45.9842M295.221 38.846L301.647 34.4015M35.2474 83.5685L301.647 34.4015M301.647 34.4015L310.411 28.3407M43.8158 79.2843L310.411 28.3407M310.411 28.3407L349.942 1M352.669 82.7895L385.384 79.6737M384.411 77.3369L351.111 80.2579M383.048 74.0264L349.358 77.9211M381.49 71.4948L349.358 75.1948M379.932 68.5737L348.774 72.079M379.153 66.0421L348.19 69.3527M377.79 62.9263L346.242 66.6264M376.232 60.0053L342.932 64.0948M374.284 57.0842L342.932 61.1737M373.311 54.5527L342.348 58.4474M371.948 51.8263L341.569 55.9158M370.39 48.7105L340.011 53.579M368.832 45.5948L337.09 50.2684M367.079 42.479L333.779 47.3474M365.911 39.1684L333.779 44.0369M364.742 36.2474L333 41.1158M362.99 32.9369L331.832 38.1948M361.042 29.4316L329.884 35.4684M359.679 26.5105L329.3 32.3526M357.927 23.2L333.779 28.6526M356.758 21.2526C356.447 21.0969 343.905 24.0439 337.674 25.5368M355.979 19.3053L341.569 22.4211M10.5158 94.279L285.484 45.9842M14.0211 92.1369L289.184 42.8684M55.3053 75.5842L103.211 65.8474M104.379 64.679L65.0421 71.8842M108.079 63.1211L73.4158 68.379M111.779 61.1737L79.0632 65.8474M115.868 59.4211L82.7632 64.2895M121.516 56.6948L86.6579 62.5369M197.658 47.3474L125.995 61.5632M204.279 43.2579L132.226 57.8632M207.2 41.8948C206.889 41.8948 159.684 50.8527 136.121 55.3316M141.184 52.4105L211.874 39.1684M215.184 37.0263L91.7211 60.2M229.011 40.9211L315.279 24.7579M322.484 20.2789L233.879 37.4158M327.353 16.3842C326.885 16.54 271.074 27.3544 243.226 32.7421M245.953 30.0158L333 12.4895M338.453 8.78947L97.1737 58.4474M8.17896 102.847L292.105 62.3421L352.279 13.6579V17.9421L355.005 19.5V16.9684L396.874 102.847L398.432 99.1474L352.279 1.38947L95.8106 56.6948L8.17896 93.1106V97.3948L1.16843 99.1474L4.28422 101.484L8.17896 100.705V102.847ZM78.2843 105.963L74.1948 181.326L128.916 182.884L131.447 100.121L78.2843 105.963ZM81.2053 110.442L99.3158 108.3L96.7843 177.042H78.0895L81.2053 110.442ZM106.716 107.521L127.163 104.99L125.021 177.626H104.379L106.716 107.521ZM206.032 88.8264L205.447 132.642L221.221 131.863V86.879L206.032 88.8264ZM184.026 91.3579L198.437 89.6053V132.642L183.247 133.616L184.026 91.3579ZM179.742 137.705L181.105 87.8527L200.969 85.7106V136.537L179.742 137.705ZM202.716 85.3309L202.137 136.732L224.726 135.953V82.5948L202.716 85.3309ZM223.947 40.9211L238.942 32.7421L219.469 36.4421L204.279 44.4263L223.947 40.9211ZM224.726 43.0632L197.463 47.1526L215.963 37.0263L215.379 35.2737L218.105 33.9105L243.811 29.0421L245.953 30.2105L243.032 32.9369L240.695 33.3263L224.726 43.0632ZM107.3 64.2895L123.853 61.5632L140.016 52.8L125.021 56.5L107.3 64.2895ZM124.826 61.9527L141.768 52.2158L124.242 55.7211L103.99 65.0684L124.826 61.9527Z" stroke="#14532D"/>
</svg>
