<?xml version="1.0" encoding="UTF-8" standalone="no"?>
<svg
   width="515"
   height="216"
   viewBox="0 0 515 216"
   fill="none"
   version="1.1"
   id="svg6"
   sodipodi:docname="see2.svg"
   inkscape:version="1.1.1 (3bf5ae0d25, 2021-09-20)"
   xmlns:inkscape="http://www.inkscape.org/namespaces/inkscape"
   xmlns:sodipodi="http://sodipodi.sourceforge.net/DTD/sodipodi-0.dtd"
   xmlns="http://www.w3.org/2000/svg"
   xmlns:svg="http://www.w3.org/2000/svg">
  <defs
     id="defs10" />
  <sodipodi:namedview
     id="namedview8"
     pagecolor="#505050"
     bordercolor="#eeeeee"
     borderopacity="1"
     inkscape:pageshadow="0"
     inkscape:pageopacity="0"
     inkscape:pagecheckerboard="0"
     showgrid="false"
     inkscape:zoom="2.1572816"
     inkscape:cx="295.04725"
     inkscape:cy="136.97795"
     inkscape:window-width="1280"
     inkscape:window-height="900"
     inkscape:window-x="0"
     inkscape:window-y="27"
     inkscape:window-maximized="1"
     inkscape:current-layer="svg6" />
  <path
     d="m 74.173283,183.5039 c -3.182562,4.36337 -3.32111,7.2409 -0.805936,13.09736 -2.291987,3.60804 -2.74788,5.51294 -1.813537,8.66467 l 18.739225,1.41031 84.225325,1.20958 54.00153,1.61104 66.4936,1.61208 c 3.99398,1.28407 8.15559,1.54689 18.94037,1.20958 6.00339,-0.47597 8.87989,-1.01506 12.4931,-2.82166 M 74.173283,183.5039 c -2.432191,-4.68621 -1.813434,-7.05155 0.806039,-10.67925 m -0.806039,10.67925 c 1.765423,-1.77764 2.732049,-2.04562 4.432906,-1.20854 m -3.626867,-9.47071 c -3.32142,-5.26977 -3.41113,-8.55395 0.201459,-15.11194 -2.216454,-5.03697 -1.962432,-8.0428 0.805935,-12.49309 -1.154633,-3.04619 -1.193435,-5.01524 0,-9.06717 -2.611919,-4.00433 -2.755019,-6.37382 0,-10.88101 v -4.63447 m -1.007394,52.18768 c 1.566759,-1.65967 2.449884,-1.77349 4.029887,-0.4025 m 247.437751,37.07471 17.93256,2.82166 m -17.93256,-2.82166 c -0.35802,-2.18738 -0.87227,-3.42386 -2.21635,-5.64124 l 3.82842,-10.67925 -1.20957,-2.21635 c -2.8496,-2.54125 -4.19886,-4.30956 -5.83887,-6.45865 l -0.0114,-0.0145 c -0.1935,-0.25454 -0.39216,-0.51425 -0.59703,-0.7812 4.72655,-7.04845 5.55743,-9.39103 4.23093,-11.08175 -1.8511,-1.13508 -2.62817,-2.09218 -3.82843,-4.03019 5.67848,-2.95411 7.21607,-4.9749 6.85081,-9.26894 l -9.06716,-11.68706 m 25.79119,64.68079 13.5009,-1.20958 h 71.73234 m -85.23324,1.20958 c -0.62704,-2.75544 -0.44389,-4.47824 1.41134,-8.0604 m 83.8219,6.85082 3.42592,-2.01459 c -0.18832,-1.98974 -0.49046,-2.98099 -1.20958,-4.63447 m -2.21634,6.64906 c -0.87641,-1.80454 -1.09163,-3.05654 -0.60427,-6.04478 m 2.82061,-0.60428 c 0.81328,-5.31116 0.71396,-8.01797 -0.60427,-12.29132 0.86813,-5.19942 0.71498,-7.89897 -0.80604,-12.29133 m 1.41031,24.58265 c -1.16405,-0.96434 -1.77349,-0.66118 -2.82061,0.60428 m 1.4103,-25.18693 c 1.20544,-5.04834 1.10301,-8.00658 -0.4025,-13.49986 0.94366,-3.66701 0.84225,-5.87612 -0.40353,-10.07497 1.46824,-6.57559 1.29752,-10.19914 -1.20855,-16.52329 0.8702,-3.96088 0.81432,-6.11617 0,-9.87321 m 2.01458,49.97133 c -0.76569,-0.90537 -1.20129,-1.00883 -2.41812,-0.60426 m 0.40354,-49.36707 c 2.13461,-6.0096 5.30703,-8.59327 11.85261,-10.89654 1.90179,-0.66946 3.58527,-2.23186 2.91685,-4.13366 -0.0756,-0.21522 -0.16245,-0.4439 -0.26178,-0.68601 m -14.50768,15.71621 c -0.64876,-1.83868 -1.00367,-2.28774 -2.61989,-1.20854 m 17.12757,-14.50767 c 0.12105,-0.45735 0.24315,-0.88676 0.358,-1.2965 0.54426,-1.92353 0.96332,-3.40316 0.64877,-5.15182 m -1.00677,6.44832 c -0.7005,-1.0492 -1.43721,-1.16302 -2.61989,-0.60427 m -292.57264,11.28352 -3.02239,81.4048 M 79.815248,157.71271 c -2.077284,-1.0761 -3.083747,-1.18682 -4.43301,0 m 4.43301,0 c 2.889843,-4.53721 3.130516,-7.30609 0.805937,-12.69382 m -0.805937,12.69382 c 3.334044,5.9589 3.174285,9.17891 -0.604581,14.70944 2.131814,4.5755 1.911627,6.66354 -0.604478,9.67144 3.266788,6.46177 2.95296,9.52658 -1.007497,14.10517 2.043036,3.05757 2.41222,5.11872 2.014995,9.26893 m 1.007498,-60.4488 c -1.671161,-1.45171 -2.672244,-1.59346 -4.634365,0 m 4.634365,0 c 2.181686,-3.34523 2.420808,-5.39913 0.604477,-9.47071 m -0.201458,0 c -2.118259,-1.62243 -3.156281,-1.4248 -4.835926,0.20177 m 242.400052,11.88778 c 3.77669,-1.51481 5.17873,-2.67679 5.64228,-5.64124 -3.49215,-3.9619 -4.79589,-6.22068 -6.65008,-10.27674 m 1.0078,15.91798 c -2.26809,-1.64001 -4.02812,-2.12736 -8.05936,-2.21634 m 7.05156,-13.70164 c 6.00855,-2.66438 7.98071,-4.49995 7.85862,-8.66467 m -7.85862,8.66467 -8.46291,-2.61989 m 16.32153,-6.04478 c -3.40627,-3.13931 -4.79796,-6.18653 -7.25332,-11.68602 4.02502,-2.43984 5.61434,-3.96293 6.85082,-7.05258 -4.08918,-3.76117 -5.06802,-6.007528 -6.24655,-10.07507 3.68253,-1.730036 5.20873,-3.210395 6.44728,-7.25394 l 38.28428,-5.238843 c -2.65196,-3.768518 -3.52733,-6.438277 -3.22312,-12.895802 m -34.85939,54.202255 17.9336,-2.01457 m 25.99296,-38.082927 c -1.39273,-2.27419 -2.77923,-2.420808 -6.04478,-1.208956 -12.64106,6.405168 -17.52696,10.535628 -19.54568,19.545473 m 25.59046,-18.336517 c 1.91214,-8.085951 1.17233,-12.197372 -1.81385,-19.142142 m 1.81385,19.142142 c -8.11834,6.371333 -12.49413,10.557254 -19.74641,19.948587 m 0,0 c 3.24071,7.58133 2.96858,11.924 0,19.74641 m 0,-19.74641 c -1.88421,-3.911197 -3.22106,-3.793245 -5.84405,-1.61207 m 5.84405,1.61207 4.8352,2.61885 c 1.1268,1.8987 1.93594,3.51699 2.34361,5.03801 m -7.17881,12.08955 c 2.6354,6.65216 3.1093,10.53853 1.00677,17.93257 m -1.00677,-17.93257 c -2.06115,-3.11965 -3.47249,-3.1869 -6.24655,-1.61207 m 7.25332,19.54464 c 2.76267,8.83332 2.88063,13.0001 0,18.73964 m 0,-18.73964 c -2.4057,-3.29245 -3.8243,-3.39903 -6.44728,-1.20854 m 6.44728,19.94818 c 2.10253,5.55432 2.17289,8.3139 0.60427,12.69382 m -0.60427,-12.69382 c -2.26395,-3.10724 -3.43421,-2.92926 -5.44051,-1.00781 m 6.04478,13.70163 c 3.5894,9.67869 3.78911,13.95722 0.6053,19.34391 m -0.6053,-19.34391 c -2.24843,-2.6116 -3.6039,-1.86661 -6.04478,0 m 6.65008,19.34391 c 1.74763,5.25323 2.16565,8.12248 0.4025,12.8956 m -0.4025,-12.8956 c -1.282,-0.79568 -1.98871,-0.80396 -5.4405,0 m 5.843,12.8956 c 1.88318,3.32038 2.49366,4.88901 2.61989,7.05258 m -2.61989,-7.05258 c -1.77142,-2.00009 -3.24381,-1.83764 -6.44727,0 m 0,0 h -21.35953 l -2.21635,-1.81281 -11.88779,-0.80604 m 35.46367,2.61885 c -1.33788,-5.12596 -0.74396,-7.95175 0.60427,-12.8956 m -19.34391,-0.4025 19.34391,0.4025 m 0,0 c -3.41247,-8.09453 -4.21955,-12.34202 -1.20958,-19.34391 m -20.14891,1.20958 20.14891,-1.20958 m 0,0 c -1.92353,-6.05409 -2.0777,-9.10958 0,-13.70163 m -17.73183,1.00781 17.73183,-1.00781 m 0,0 c -3.29658,-7.41163 -3.12897,-11.55668 -1.00677,-18.94037 m -19.94818,2.41811 19.94818,-2.41811 m 0,0 c -2.99756,-8.18249 -2.89202,-12.08956 -0.80604,-18.3361 m 0,0 c -3.15691,-7.38991 -3.0079,-11.71913 0.4025,-19.74641 m -18.94037,2.82061 18.94037,-2.82061 m -40.90314,-13.097571 -4.43373,0.604478 c -7.13122,9.23272 -7.51613,13.737853 -1.61208,20.552443 m 0,0 c -6.7132,9.13856 -6.20723,13.55471 1.20957,20.35172 m -1.20957,-20.35172 c 4.01261,-3.65667 6.59007,-3.86257 11.68705,-1.4103 m -10.47748,21.76202 c -4.10675,5.53466 -4.19781,9.01232 -1.4103,15.71622 m 1.4103,-15.71622 c 4.06539,-2.33327 6.51558,-2.27326 11.08175,-0.60531 m -12.49205,16.32153 c -6.36968,7.67652 -6.60973,12.29028 2.01458,21.35848 m -2.01458,-21.35848 c 6.0396,-3.06586 9.05372,-2.91685 13.9034,0 m -11.88882,21.35848 c -3.67943,6.05927 -3.73323,9.19858 0,14.30592 m 0,-14.30592 c 3.63287,-2.1346 5.98891,-2.22669 10.88101,0 m -10.88101,14.30592 c -5.44362,9.58141 -5.25323,13.93133 0.60427,19.94818 m -0.60427,-19.94818 c 4.94902,-2.08392 7.33816,-2.06219 10.88101,0.20176 m -10.27674,19.74642 c -2.8558,3.8905 -3.42903,6.19584 -3.02239,10.4785 m 3.02239,-10.4785 c 5.03697,-1.75487 7.49958,-1.55 11.28455,0.80603 m 0,0 c 3.24382,3.21588 4.26921,5.26254 3.62666,9.67247 M 310.52897,201.84 c 5.95373,-7.35058 6.25586,-11.79466 -1.00781,-20.55245 m 0,0 c 4.24749,-5.45396 4.16678,-8.63466 0,-14.50768 m 0,14.50768 10.47748,1.41031 0.80604,1.20958 m -11.28352,-17.12757 11.08175,2.01563 m -11.08175,-2.01563 c 7.65375,-8.34907 6.4359,-13.02389 1.00781,-21.35848 m 0,0 c 3.10931,-6.9305 2.63023,-10.47852 -1.41135,-16.32153 m 0,0 c 6.31691,-8.41529 6.72977,-13.06011 -0.60427,-21.15671 m 0,0 c 6.18861,-7.44267 6.63353,-11.461596 1.61208,-18.336208 l -2.41811,-2.014994 M 79.613687,205.66844 h 12.089761 c 0.398779,-1.84489 0.919135,-3.00687 2.216455,-5.23874 -0.861396,-0.81329 -1.230168,-1.33375 -1.611976,-2.41813 1.809295,-2.90236 2.485996,-4.64791 3.425513,-7.85759 -2.600952,-1.54688 -3.660702,-2.64886 -4.835927,-5.038 -0.340213,-0.55357 -0.301928,-0.96745 0,-1.81281 1.861341,-1.76315 2.741673,-2.95927 4.029888,-5.44051 m 0,0 c -1.90811,-0.99539 -2.66469,-1.72176 -3.626972,-3.22415 2.359141,-2.74613 3.406578,-4.56515 4.835513,-8.26114 -3.612898,-2.27118 -4.734628,-3.85326 -5.036971,-7.25435 2.56391,-1.2044 3.728063,-2.24221 5.238739,-4.83624 -2.72284,-2.19151 -3.784142,-3.68978 -4.835719,-6.85082 3.223641,-2.37361 4.276976,-3.74461 5.037488,-6.24551 -1.591385,-0.52046 -2.821034,-2.61988 -2.821034,-2.61988 m 1.208956,39.29209 1.612078,-0.80604 18.537871,-0.60427 M 93.718445,138.57057 c 0,0 3.340458,-3.7767 4.634881,-7.25435 -5.241843,-2.84856 -6.110792,-4.58584 -5.037901,-7.8576 m 0.40302,15.11195 -12.492783,-3.02239 m 12.089763,-12.08956 c 2.108636,-1.12473 2.651859,-3.70426 2.820517,-5.23874 m -2.820517,5.23874 c -0.644728,0 -10.477788,-1.8811 -15.313714,-2.82165 m 3.223951,14.91121 c 4.768359,-6.13066 3.482939,-11.44079 0.326554,-12.42481 m -5.363938,1.94733 c 1.775873,-1.76418 3.578028,-2.33844 5.037384,-2.03217 m 0,0 c 0.110921,0.0227 0.219772,0.0507 0.326554,0.0849 m -0.326554,-0.0849 0.326554,0.0849 m 0,0 11.360293,2.9541 m -15.313817,70.32306 c -1.433902,-1.08748 -2.305232,-1.17337 -4.029887,0 m 235.348085,-88.65915 9.26894,3.42591 m 1.00677,-16.724423 -11.28352,-7.052379 m -189.80934,36.268862 59.64278,-8.26112 2.82062,5.038 m -5.64125,87.44959 c 0.97367,-3.26451 1.8511,-4.92212 4.23094,-7.45613 -2.6023,-4.46994 -2.43261,-7.08466 0,-11.88778 -2.14185,-6.09755 -2.12737,-9.13443 0.60427,-13.70164 -2.19358,-4.65102 -2.59712,-7.33817 0.40353,-12.49309 -2.59711,-5.20149 -2.60747,-7.99004 0.40251,-12.69383 -2.8558,-5.46845 -3.88224,-8.61603 0.40353,-15.11298 -3.66494,-5.65987 -3.7353,-8.74744 -0.40353,-14.10414 m 0,0 43.99174,-4.41924 M 380.64923,52.733176 c 5.27805,6.03712 6.57972,9.179225 5.64227,14.306216 7.86794,6.114311 10.19707,9.750593 9.46967,16.724231 5.55847,3.876542 7.04224,7.035823 6.65008,14.508082 4.45443,4.700685 6.11514,7.599955 4.8352,14.104135 4.15333,4.26093 4.55893,6.99258 0.60531,12.69486 1.08541,2.3312 1.61415,4.13885 1.59346,5.84302 m 0.0175,69.71774 4.83624,3.82843 m -4.83624,-3.82843 c 2.76683,-3.51595 3.71151,-5.91854 2.7782,-8.26113 m -2.7782,8.26113 c -17.5404,-1.56965 -29.2616,-0.66532 -45.11233,0.55668 h -0.003 c -3.58528,0.2773 -7.38163,0.57012 -11.50495,0.85363 m 61.45662,2.41812 c 0.0704,2.83718 -0.43043,4.28888 -2.21634,6.64905 m 2.21634,-6.64905 14.70945,0.60428 m 0,0 c -1.51585,-5.1032 -1.61726,-8.06351 -0.60428,-13.49988 m -16.1632,0.80604 c -0.56703,-1.42065 -1.8242,-2.82061 -3.78498,-4.43269 2.146,-3.24279 2.93652,-5.59986 2.46365,-8.0604 m 1.32133,12.49309 c 5.53777,-1.04505 9.05474,-1.24268 16.1632,-0.80604 m 0,0 c 1.65554,-0.0445 2.13668,0.18522 2.61886,0.80604 m -2.61886,-0.80604 c -1.48377,-4.80105 -1.43721,-7.49233 -0.40353,-12.29132 m -17.081,0.60427 c -0.31973,-1.66382 -1.21785,-3.37523 -2.66541,-5.4405 1.69899,-3.3773 2.24532,-5.71368 1.78901,-7.85863 m 0.8764,13.29913 c 6.24345,-0.66531 9.97254,-0.80811 17.081,-0.60427 m 0,0 c -1.86661,-4.99144 -1.96698,-7.96727 -0.92813,-13.50297 m -19.82609,-4.22887 c 1.48791,1.82834 2.44398,3.37524 2.79682,5.03698 m -2.79682,-5.03698 c 1.36478,-1.82626 2.10046,-3.39177 2.25774,-5.03696 m -2.25774,5.03696 -32.84378,-6.04477 m 35.6406,11.08175 c 6.52178,-0.7719 10.26847,-0.95297 17.02927,-0.80811 m 0,0 0.12209,0.003 m -0.12209,-0.003 c 1.31925,-0.67463 1.95456,-0.54323 2.94375,0.4056 m -2.94375,-0.4056 c -1.22097,-3.70219 -1.30063,-5.77472 -0.88468,-9.4676 m -16.68367,0.20177 c 0.20591,-2.15738 -0.58254,-4.45339 -2.25774,-7.65686 1.77763,-3.27899 2.55677,-5.54708 2.2091,-7.65686 m 0.0487,15.31372 16.68367,-0.20177 m 0,0 c 1.32028,-1.19405 2.04872,-1.62139 3.22312,0 m -3.22312,0 c -1.49723,-7.05983 -1.42376,-10.81894 -0.40354,-17.32933 m -16.32877,2.21738 c -0.23074,-1.39789 -0.95399,-2.72543 -2.2091,-4.23196 1.43721,-2.29499 2.17392,-4.10263 2.19876,-6.04477 m 0.0104,10.27673 5.24702,-1.61207 11.08175,-0.60531 m 0,0 c 1.55517,-0.41492 2.01457,-0.20798 2.41811,0.60531 m -2.41811,-0.60531 c -1.03678,-3.9019 -0.97057,-6.1586 0,-10.27571 m -16.33911,2.21636 4.65205,-1.41032 11.68706,-0.80604 m 0,0 c 0.84846,-7.14674 3.43834,-9.7749 11.68705,-12.08956 0.55461,-1.39789 0.99229,-2.13046 2.82062,-3.02238 m 0,0 c -1.48584,-3.81498 -1.38858,-6.12652 0,-10.47851 m 0,0 h 1.20957 m -1.20957,0 c -0.64462,0 -22.03002,2.14909 -32.64201,3.22416 m -50.37384,6.24654 7.85759,2.41812 0.40354,44.93333 -5.44051,-0.80604 m 14.30591,-45.94114 -19.74641,-7.65686 m 19.74641,7.65686 33.24731,11.68706 m -33.24731,-11.68706 c 2.06217,5.76437 1.95767,8.59844 0,13.09737 M 359.4929,91.621937 407.24685,112.57761 m -4.63447,-14.305905 -33.24627,-15.51558 m 26.39546,1.410413 -25.79119,-13.09726 M 386.2919,67.24085 372.99277,59.180973 M 78.001711,196.19876 l 14.507778,1.81281 m -1.611976,-14.3059 -12.291324,-1.20854 m 12.895802,-7.85862 -12.089762,-2.01459 m 11.485284,-13.5009 -10.880806,-1.41031 m 11.686741,-10.27675 -10.880806,-2.41707 m 13.097261,55.21007 H 113.66704 M 95.329902,189.75045 h 19.143178 m 0.60427,-13.2981 0.60427,-11.48528 m -0.60427,11.48528 -0.40353,13.49987 -0.80604,10.27674 m 1.20957,-23.77661 c -3.85223,5.24391 -3.99088,8.15765 -0.40353,13.2981 -2.76061,3.88533 -2.98101,6.17515 -0.80604,10.47851 m 1.20957,-23.77661 c -3.10724,-4.0602 -3.03791,-6.56627 0.60427,-11.48528 m -19.746411,1.4103 0.60427,-0.40353 19.142141,-1.00677 m 0,0 0.4025,-12.0906 m -0.4025,12.0906 c -3.4611,-4.49065 -3.70219,-7.11468 0.60427,-12.0906 m -19.746411,1.20958 19.746411,-1.20958 m 0,0 0.60427,-13.29809 m -0.60427,13.29809 c -3.51077,-5.54294 -3.31935,-8.4453 0.40354,-13.29809 -2.03631,-3.45283 -2.33223,-5.62573 0.60427,-10.47852 m -20.754221,11.88883 2.014581,-0.80604 18.3361,-0.60427 m 0,0 0.40354,-10.47852 m -18.73964,2.21636 0.806039,-0.80501 17.933601,-1.41135 m 0,0 0.60427,-5.44051 h -2.82062 l -21.761925,1.00782 m 23.978275,4.43269 c -2.01768,-1.50446 -2.74301,-2.62298 -2.82062,-5.44051 m -0.6053,76.56961 v 6.85082 m 0,-6.85082 c -2.50918,2.36535 -3.41765,3.8574 -4.02917,6.85082 m 114.71627,-91.06279 0.13658,-0.0145 m -0.13658,0.0145 0.13658,-9.28238 1.00678,-3.0224 48.15749,-6.246852 c -0.59806,4.670992 -0.06,7.073582 1.20958,11.283822 m -50.51043,7.26781 -0.22866,15.52583 m -43.76308,2.99755 43.76308,-2.99755 m 0,0 0.36524,-0.0248 m -0.36524,0.0248 -0.4408,29.99831 m -43.32228,-12.08955 43.32228,-1.20958 m -43.32228,14.10518 43.32228,-0.80605 m 0,0 -0.80603,1.20855 51.98592,-1.20855 v -2.61988 m -95.50895,15.91903 116.46494,-2.6199 m -3.22417,-13.29913 h -17.73182 m 0,0 c -1.40307,-5.77886 -1.77556,-9.04751 1.00781,-15.11194 m 19.94818,-1.20855 c -1.7735,-0.16141 -14.03792,0.73879 -19.94818,1.20855 m 0,0 c -2.35914,-6.92428 -2.7244,-10.80651 0,-17.73183 m 17.53006,-1.61208 -17.53006,1.61208 m 0,0 c -2.21739,-6.08824 -3.04413,-9.65695 -1.00781,-17.3283 m 19.34391,-2.41811 -19.34391,2.41811 m -95.71072,79.99346 H 295.21526 M 179.35459,200.83323 H 298.84191 M 440.292,113.18188 410.06811,116.6078 m -2.01562,71.12807 -53.79976,-3.22416 m -2.01459,-15.11194 55.81435,5.03697 m -33.64981,-18.94038 c 3.03273,-5.81921 2.56918,-8.69157 0,-13.49987 m 0,13.49987 c 2.50089,2.70163 3.54181,4.36544 3.62665,8.05936 m -3.62665,-21.55923 32.84377,7.05156 m -32.84377,-7.05156 c 2.93961,-6.20826 3.01514,-9.65177 0,-15.71724 m 32.84377,10.47748 -32.84377,-10.47748 m 3.62665,37.27647 v 1.00781 l -17.73079,-2.21635 v -1.61208 m 17.73079,2.82062 -8.86539,-1.41031 m -8.8654,-1.41031 8.8654,1.41031 m -8.8654,-1.41031 c -0.18936,-1.08128 -0.40043,-2.01148 -0.6529,-2.82062 m -5.59365,-20.55246 c 3.69495,5.61641 4.084,8.86127 0.20074,14.91018 m -0.20074,-14.91018 c 5.55019,-6.35932 4.63447,-11.08277 -0.40354,-17.32932 m 0.40354,17.32932 h -2.61988 m 2.82062,14.91018 h -1.41032 m 1.41032,0 c 2.93754,1.26338 4.44615,2.60127 5.39291,5.64228 m -5.99719,-37.88178 c -0.9302,-0.73257 -1.53757,-0.89606 -2.82061,-0.60427 m 2.82061,0.60427 c 3.1538,-3.73841 3.97123,-6.40279 3.14966,-9.46967 m 12.36583,51.58238 -1.41031,-48.15749 -10.95552,-3.42489 m 0.27627,3.42489 6.04478,2.41812 0.60427,41.91094 -4.07779,-0.4025 M 49.389279,119.42843 343.37275,70.061781 406.23968,27.143132 452.18082,124.4654 M 267.00491,44.471737 265.79637,44.068822 v -2.619474 l 1.61208,-0.201458 m -0.40354,3.223847 c -0.0289,0.622172 -0.0641,1.542339 -0.0797,2.418015 m 0.0797,-2.418015 16.72506,-4.231345 v 3.022389 M 267.40845,41.24789 v -2.216556 l 8.16076,-2.115673 m -8.16076,4.332229 16.32152,-3.828428 12.49206,5.843319 3.6277,-1.007496 -14.10518,-6.64936 m -10.17534,1.309736 8.16076,-2.115672 2.01458,0.805936 m -10.17534,1.309736 v -4.735145 c 3.59769,-2.029273 5.74575,-2.18655 9.7718,-1.007497 l 0.40354,4.432906 m -18.73964,13.701738 c -0.0901,-0.270266 -0.10036,-1.308391 -0.0797,-2.417911 m 0,0 16.80473,-3.626971 m 0,0 v 2.418015 m -12.29132,0.402917 v -2.820932 m 8.26112,-2.014891 v 2.619369 m -5.84404,-1.208955 v -2.820931 m 2.21739,2.216453 -0.20177,-2.619473 m 3.82842,-1.208955 v -2.216453 m -8.66466,4.432906 v -2.216453 m 17.73183,1.611975 v -2.820931 m 6.04478,2.820931 v 2.820931 m -3.02239,0.752234 -7.85863,-2.968687 v -5.641862 m 7.85863,8.610549 1.20855,0.456721 M 291.7893,43.410538 V 41.24789 M 68.531421,107.94315 346.79764,58.242905 m 0,0 -10.67924,7.385969 m 10.67924,-7.385969 6.64904,-4.598771 M 77.800253,104.51721 353.44668,53.644134 m 0,0 9.06821,-6.271172 M 86.666065,100.08452 362.51489,47.372962 m 0,0 40.90313,-28.289707 m 2.82166,84.628955 33.85055,-3.22415 m -1.00677,-2.418124 -34.45585,3.022394 m 33.04554,-6.448004 -34.8594,4.02988 m 33.24732,-6.649249 -33.24732,3.828429 m 31.63524,-6.850921 -32.23951,3.62697 m 31.43347,-6.246443 -32.03774,3.425512 m 30.62743,-6.649463 -32.64304,3.828429 m 31.03096,-6.850818 -34.45586,4.231449 m 32.44025,-7.253941 -32.44025,4.231448 m 31.43347,-6.850921 -32.03774,4.02999 m 30.62743,-6.850921 -31.43346,4.231448 m 29.82139,-7.455399 -31.43347,5.037488 m 29.82139,-8.261438 -32.84378,4.835926 m 31.02992,-8.059774 -34.45585,5.037385 m 33.24732,-8.462897 -33.24732,5.037384 m 32.03774,-8.059773 -32.84377,5.037384 m 31.03096,-8.462896 -32.23951,5.440404 m 30.22389,-9.06727 -32.23951,6.246339 m 30.8292,-9.268832 -31.43347,6.044882 m 29.62066,-9.470291 -24.98619,5.641862 m 23.77662,-7.656857 c -0.3218,-0.161208 -13.29914,2.888187 -19.74642,4.432906 M 409.66457,38.02394 394.7544,41.24789 M 52.21021,115.6 336.72267,65.628874 M 55.83718,113.38365 340.55109,62.404924 M 98.55406,96.256297 148.1229,86.181534 m 1.20854,-1.208955 -40.7024,7.455295 m 44.53083,-9.067271 -35.86617,5.440404 m 39.6946,-7.455399 -33.85159,4.835926 m 38.08251,-6.649359 -34.25408,5.037384 m 40.09813,-7.858419 -36.06794,6.044985 M 245.84819,67.039392 171.69774,81.748627 M 252.69901,62.807944 178.14502,77.920199 M 255.7214,61.397427 c -0.3218,0 -49.1653,9.268832 -73.54618,13.903299 m 5.23874,-3.022492 73.14367,-13.701739 m 3.42489,-2.216452 -127.74845,23.978067 m 142.05539,-19.948078 89.2624,-16.72423 m 7.45509,-4.634468 -91.68052,17.731728 m 96.71853,-21.761615 c -0.48426,0.161208 -58.23247,11.35098 -87.04708,16.925689 m 2.82165,-2.820931 90.06844,-18.134645 m 5.64226,-3.828428 -249.65388,51.381545 M -8.3367073,-1.6109551 c 0,-1.71437 1.3897717,-3.104131 3.1041316,-3.104131 H 519.3656 c 1.71452,0 3.10413,1.389771 3.10413,3.104131 V 4.3880811 216.71293 H -8.3367073 Z M 49.792299,124.4654 343.57348,82.554564 405.83615,32.180516 v 4.432907 l 2.82061,1.611975 v -2.619473 l 43.32229,88.859475 1.61208,-3.82843 L 405.83615,19.486275 140.46604,76.711243 49.792299,114.39146 v 4.4327 l -7.253941,1.81281 3.22395,2.41811 4.029991,-0.80604 z m 72.538371,3.22415 -4.23093,77.97889 56.62038,1.61207 2.61886,-85.63573 z m 3.0224,4.63447 18.73964,-2.21635 -2.6199,71.12806 h -19.34287 z m 26.39649,-3.02239 21.15672,-2.61885 -2.21635,75.15722 h -21.35849 z m 102.76329,-19.34391 -0.6053,45.33687 16.32152,-0.80604 v -46.5454 z m -22.76983,2.61989 14.91121,-1.81385 v 44.53083 l -15.71725,1.00781 z m -4.4327,47.95572 1.41031,-51.58238 20.55348,-2.21634 v 52.59018 z m 23.77143,-54.19192 -0.59909,53.18515 23.37307,-0.80604 v -55.21008 z m 21.96795,-45.951378 15.51547,-8.462896 -20.14891,3.828429 -15.71725,8.261334 z m 0.80603,2.216453 -28.20931,4.231345 19.14214,-10.477787 -0.60427,-1.813434 2.82062,-1.410518 26.59827,-5.037383 2.21635,1.208955 -3.0224,2.820931 -2.41811,0.40302 z m -121.5019,21.963074 17.12756,-2.820932 16.72402,-9.067373 -15.51548,3.828428 z m 18.13433,-2.418015 17.53007,-10.074768 -18.13434,3.62697 -20.95495,9.671748 z"
     stroke="#14532d"
     id="path4"
     sodipodi:nodetypes="ccccccccccccccccccccccccccccccccccccccccccccccccccccccccccsccccccccccccccccccccccccccccccccccccccccccccccccccccccccccccccccccccccccccccccccccccccccccccccccccccccccccccccccccccccccccccccccccccccccccccccccccccccccccccccccccccccccccccccccccccccccccccccccccccccccccccccccccccccccccccccccccccccccccccccccccccccccccccccccccccccccccccccccccccccccccccccccccccccccccccccccccccccccccccccccccccccccccccccccccccccccccccccccccccccccccccccccccccccccccccccccccccccccccccccccccccccccccccccccccccccccccccccccccccccccccccccccccccccccccccccccccccccccccccccccccccccccccccccccccccccccccccccccccccccccccccccccccccccccccccccccccccccccccccccccccccccccccccccccccccccccccccccccccccccccccccccccsssscccscccccccccccccccccccccccccccccccccccccccccccccccccccccccccccccccccccccccccccc"
     style="stroke-width:1.03471" />
</svg>
